<svg xmlns="http://www.w3.org/2000/svg" xmlns:xlink="http://www.w3.org/1999/xlink" version="1.1" width="600pt" height="450pt" viewBox="0 0 600 450">
<defs>
<clipPath id="clip_0">
<path d="M50.25 29.25H514.5V401.25H50.25Z"/>
</clipPath>
<clipPath id="clip_1">
<path d="M50.25 67H374V191H50.25Z"/>
</clipPath>
<clipPath id="clip_2">
<path d="M50.25 78H262V187H50.25Z"/>
</clipPath>
<clipPath id="clip_3">
<path d="M50.25 86H187V183H50.25Z"/>
</clipPath>
<clipPath id="clip_4">
<path d="M50.25 94H131V179H50.25Z"/>
</clipPath>
<clipPath id="clip_5">
<path d="M50.25 102H93V174H50.25Z"/>
</clipPath>
<clipPath id="clip_6">
<path d="M50.25 111H84V170H50.25Z"/>
</clipPath>
<clipPath id="clip_7">
<path d="M50.25 121H76V166H50.25Z"/>
</clipPath>
<clipPath id="clip_8">
<path d="M50.25 132H68V162H50.25Z"/>
</clipPath>
<clipPath id="clip_9">
<path d="M50.25 142H59V158H50.25Z"/>
</clipPath>
</defs>
<g>
<path d="M0 0H600V450H0Z" fill="#ffffff"/>
<path d="M50.25 29.25H514.5V401.25H50.25Z" fill="#ffffff"/>
<path stroke-width=".75" stroke-linecap="butt" stroke-miterlimit="2" stroke-linejoin="miter" fill="none" stroke="#000000" stroke-opacity=".12" d="M127.625 401.25V29.25"/>
<path stroke-width=".75" stroke-linecap="butt" stroke-miterlimit="2" stroke-linejoin="miter" fill="none" stroke="#000000" stroke-opacity=".12" d="M224.344 401.25V29.25"/>
<path stroke-width=".75" stroke-linecap="butt" stroke-miterlimit="2" stroke-linejoin="miter" fill="none" stroke="#000000" stroke-opacity=".12" d="M321.063 401.25V29.25"/>
<path stroke-width=".75" stroke-linecap="butt" stroke-miterlimit="2" stroke-linejoin="miter" fill="none" stroke="#000000" stroke-opacity=".12" d="M417.781 401.25V29.25"/>
<path stroke-width=".75" stroke-linecap="butt" stroke-miterlimit="2" stroke-linejoin="miter" fill="none" stroke="#000000" stroke-opacity=".12" d="M514.5 401.25V29.25"/>
<path stroke-width=".75" stroke-linecap="butt" stroke-miterlimit="2" stroke-linejoin="miter" fill="none" stroke="#000000" stroke-opacity=".12" d="M50.25 383.535H514.5"/>
<path stroke-width=".75" stroke-linecap="butt" stroke-miterlimit="2" stroke-linejoin="miter" fill="none" stroke="#000000" stroke-opacity=".12" d="M50.25 294.965H514.5"/>
<path stroke-width=".75" stroke-linecap="butt" stroke-miterlimit="2" stroke-linejoin="miter" fill="none" stroke="#000000" stroke-opacity=".12" d="M50.25 206.395H514.5"/>
<path stroke-width=".75" stroke-linecap="butt" stroke-miterlimit="2" stroke-linejoin="miter" fill="none" stroke="#000000" stroke-opacity=".12" d="M50.25 117.82H514.5"/>
<path stroke-width=".75" stroke-linecap="butt" stroke-miterlimit="2" stroke-linejoin="miter" fill="none" stroke="#000000" stroke-opacity=".12" d="M50.25 29.25H514.5"/>
<text xml:space="preserve" transform="matrix(1 0 0 1 0 0)" font-size="12" font-family="TeXGyreHerosMakieRegular"><tspan y="435.59376" x="272.08985">&#x03c7;</tspan></text>
<text xml:space="preserve" transform="matrix(1 0 0 1 0 0)" font-size="12" font-family="TeXGyreHerosMakieRegular"><tspan y="435.59376" x="279.84187">B</tspan></text>
<text xml:space="preserve" transform="matrix(1 0 0 1 0 0)" font-size="12" font-family="DejaVuSans"><tspan y="435.59376" x="287.84587">&#x2080;</tspan></text>
<text xml:space="preserve" transform="matrix(.99999859 0 0 1.0000014 0 0)" font-size="12.000029" font-family="TeXGyreHerosMakieRegular"><tspan y="419.36268" x="119.285327">3</tspan></text>
<text xml:space="preserve" transform="matrix(.9999976 0 0 1.0000024 0 0)" font-size="12.000017" font-family="TeXGyreHerosMakieRegular"><tspan y="419.36228" x="125.95733">.</tspan></text>
<text xml:space="preserve" transform="matrix(.9999981 0 0 1.0000019 0 0)" font-size="12.000023" font-family="TeXGyreHerosMakieRegular"><tspan y="419.3625" x="129.29322 216.00539">13</tspan></text>
<text xml:space="preserve" transform="matrix(.99999716 0 0 1.0000029 0 0)" font-size="12.000011" font-family="TeXGyreHerosMakieRegular"><tspan y="419.3621" x="222.67642">.</tspan></text>
<text xml:space="preserve" transform="matrix(.99999907 0 0 1.000001 0 0)" font-size="12.000034" font-family="TeXGyreHerosMakieRegular"><tspan y="419.36289" x="226.01194">2</tspan></text>
<text xml:space="preserve" transform="matrix(.9999981 0 0 1.0000019 0 0)" font-size="12.000023" font-family="TeXGyreHerosMakieRegular"><tspan y="419.3625" x="312.72328">3</tspan></text>
<text xml:space="preserve" transform="matrix(.99999907 0 0 1.000001 0 0)" font-size="12.000034" font-family="TeXGyreHerosMakieRegular"><tspan y="419.36289" x="319.39485">.</tspan></text>
<text xml:space="preserve" transform="matrix(.9999981 0 0 1.0000019 0 0)" font-size="12.000023" font-family="TeXGyreHerosMakieRegular"><tspan y="419.3625" x="322.73109 409.44328 416.11528 419.45127 506.16114 512.8331">33.43.</tspan></text>
<text xml:space="preserve" transform="matrix(.9999962 0 0 1.0000038 0 0)" font-size="12" font-family="TeXGyreHerosMakieRegular"><tspan y="419.3617" x="516.1699">5</tspan></text>
<text xml:space="preserve" transform="matrix(0 -.9999988 1.0000013 0 0 0)" font-size="11.999991" font-family="TeXGyreHerosMakieRegular"><tspan y="22.289034" x="-219.80886">&#x03a9;</tspan></text>
<text xml:space="preserve" transform="matrix(1.0000004 0 0 .9999996 0 0)" font-size="12.000005" font-family="TeXGyreHerosMakieRegular"><tspan y="387.91035" x="35.328115">0</tspan><tspan y="299.34" x="35.328115">5</tspan></text>
<text xml:space="preserve" transform="matrix(.99999859 0 0 1.0000014 0 0)" font-size="12.000006" font-family="TeXGyreHerosMakieRegular"><tspan y="210.76532" x="28.65629">1</tspan></text>
<text xml:space="preserve" transform="matrix(.99999937 0 0 1.0000006 0 0)" font-size="12.000016" font-family="TeXGyreHerosMakieRegular"><tspan y="210.76552" x="35.32815">0</tspan></text>
<text xml:space="preserve" transform="matrix(1 0 0 1 0 0)" font-size="11.999989" font-family="TeXGyreHerosMakieRegular"><tspan y="122.19531" x="28.65625">1</tspan></text>
<text xml:space="preserve" transform="matrix(1.0000008 0 0 .9999991 0 0)" font-size="11.999999" font-family="TeXGyreHerosMakieRegular"><tspan y="122.19543" x="35.3281">5</tspan></text>
<text xml:space="preserve" transform="matrix(.999999 0 0 1.0000011 0 0)" font-size="12.000001" font-family="TeXGyreHerosMakieRegular"><tspan y="33.624967" x="28.65628">2</tspan></text>
<text xml:space="preserve" transform="matrix(.99999979 0 0 1.0000002 0 0)" font-size="12.000011" font-family="TeXGyreHerosMakieRegular"><tspan y="33.624994" x="35.328134">0</tspan></text>
<text xml:space="preserve" transform="matrix(1.0000004 0 0 .9999996 0 0)" font-size="11.999995" font-family="TeXGyreHerosMakieBold" font-weight="bold"><tspan y="23.632824" x="245.36711 254.03112">Co</tspan></text>
<text xml:space="preserve" transform="matrix(1.0000013 0 0 .9999986 0 0)" font-size="12.000007" font-family="TeXGyreHerosMakieBold" font-weight="bold"><tspan y="23.632847" x="261.36296">n</tspan></text>
<text xml:space="preserve" transform="matrix(1.0000004 0 0 .9999996 0 0)" font-size="11.999995" font-family="TeXGyreHerosMakieBold" font-weight="bold"><tspan y="23.632824" x="268.69523">c</tspan></text>
<text xml:space="preserve" transform="matrix(.99999949 0 0 1.0000006 0 0)" font-size="11.999984" font-family="TeXGyreHerosMakieBold" font-weight="bold"><tspan y="23.6328" x="275.36735">u</tspan></text>
<text xml:space="preserve" transform="matrix(1.0000004 0 0 .9999996 0 0)" font-size="11.999995" font-family="TeXGyreHerosMakieBold" font-weight="bold"><tspan y="23.632824" x="282.69914">r</tspan></text>
<text xml:space="preserve" transform="matrix(1.0000013 0 0 .9999986 0 0)" font-size="12.000007" font-family="TeXGyreHerosMakieBold" font-weight="bold"><tspan y="23.632847" x="287.36683">r</tspan></text>
<text xml:space="preserve" transform="matrix(1.0000004 0 0 .9999996 0 0)" font-size="11.999995" font-family="TeXGyreHerosMakieBold" font-weight="bold"><tspan y="23.632824" x="292.03507">e</tspan></text>
<text xml:space="preserve" transform="matrix(.99999949 0 0 1.0000006 0 0)" font-size="11.999984" font-family="TeXGyreHerosMakieBold" font-weight="bold"><tspan y="23.6328" x="298.7072">n</tspan></text>
<text xml:space="preserve" transform="matrix(1.0000004 0 0 .9999996 0 0)" font-size="11.999995" font-family="TeXGyreHerosMakieBold" font-weight="bold"><tspan y="23.632824" x="306.03898">c</tspan></text>
<text xml:space="preserve" transform="matrix(.99999949 0 0 1.0000006 0 0)" font-size="11.999984" font-family="TeXGyreHerosMakieBold" font-weight="bold"><tspan y="23.6328" x="312.71113">e</tspan></text>
<g clip-path="url(#clip_0)">
<path d="M514.5 29.25H50.25V67.25L58.82 70.582 92.453 73.09 134.66 76.352 176.863 80.02 219.066 84.316 261.273 89.527 303.477 96.094 345.684 104.742 373.41 111.918 345.684 118.996 303.477 126.98 261.273 132.637 219.066 136.848 176.863 140.098 134.66 151.688 133.484 153.25 92.453 186.301 50.25 190.449V401.25H514.5ZM514.5 29.25" fill="#440154"/>
</g>
<g clip-path="url(#clip_1)">
<path d="M50.25 67.25V78.262L92.453 83.129 134.66 88.59 176.863 94.906 219.066 102.477 261.273 111.801 261.777 111.918 261.273 112.023 219.066 120.441 176.863 126.945 134.66 138.004 123.199 153.25 92.453 178.016 50.25 186.316V190.449L92.453 186.301 133.484 153.25 134.66 151.688 176.863 140.098 219.066 136.848 261.273 132.637 303.477 126.98 345.684 118.996 373.41 111.918 345.684 104.742 303.477 96.094 261.273 89.527 219.066 84.316 176.863 80.02 134.66 76.352 92.453 73.09 58.82 70.582ZM50.25 67.25" fill="#482878"/>
</g>
<g clip-path="url(#clip_2)">
<path d="M261.273 111.801 219.066 102.477 176.863 94.906 134.66 88.59 92.453 83.129 50.25 78.262V86.457L92.453 93.168 134.66 100.824 176.863 109.793 186.531 111.918 176.863 113.793 134.66 124.32 112.918 153.25 92.453 169.734 50.25 182.184V186.316L92.453 178.016 123.199 153.25 134.66 138.004 176.863 126.945 219.066 120.441 261.273 112.023 261.777 111.918ZM261.273 111.801" fill="#3e4a89"/>
</g>
<g clip-path="url(#clip_3)">
<path d="M176.863 109.793 134.66 100.824 92.453 93.168 50.25 86.457V94.656L92.453 103.207 130.559 111.918 102.633 153.25 92.453 161.449 50.25 178.051V182.184L92.453 169.734 112.918 153.25 134.66 124.32 176.863 113.793 186.531 111.918ZM176.863 109.793" fill="#31688e"/>
</g>
<g clip-path="url(#clip_4)">
<path d="M50.25 94.656V102.855L87.945 111.918 92.367 153.25 50.25 173.918V178.051L92.453 161.449 102.633 153.25 130.559 111.918 92.453 103.207ZM50.25 94.656" fill="#26838e"/>
</g>
<g clip-path="url(#clip_5)">
<path d="M53.836 111.918 83.945 153.25 50.25 169.785V173.918L92.367 153.25 87.945 111.918 50.25 102.855V111.055ZM53.836 111.918" fill="#1f9d89"/>
</g>
<g clip-path="url(#clip_6)">
<path d="M53.836 111.918 50.25 111.055V121.414L75.52 153.25 50.25 165.648V169.785L83.945 153.25ZM53.836 111.918" fill="#35b779"/>
</g>
<g clip-path="url(#clip_7)">
<path d="M50.25 132.027 67.098 153.25 50.25 161.516V165.648L75.52 153.25 50.25 121.414ZM50.25 132.027" fill="#6cce59"/>
</g>
<g clip-path="url(#clip_8)">
<path d="M50.25 142.637 58.672 153.25 50.25 157.383V161.516L67.098 153.25 50.25 132.027ZM50.25 142.637" fill="#b4dd2c"/>
</g>
<g clip-path="url(#clip_9)">
<path d="M50.25 153.25V157.383L58.672 153.25 50.25 142.637ZM50.25 153.25" fill="#fde725"/>
</g>
<path d="M532.5 364.051H544.5V401.25H532.5Z" fill="#440154"/>
<path d="M532.5 326.852H544.5V364.051H532.5Z" fill="#482878"/>
<path d="M532.5 289.652H544.5V326.851H532.5Z" fill="#3e4a89"/>
<path d="M532.5 252.449H544.5V289.648H532.5Z" fill="#31688e"/>
<path d="M532.5 215.25H544.5V252.449H532.5Z" fill="#26838e"/>
<path d="M532.5 178.051H544.5V215.25H532.5Z" fill="#1f9d89"/>
<path d="M532.5 140.852H544.5V178.05101H532.5Z" fill="#35b779"/>
<path d="M532.5 103.652H544.5V140.851H532.5Z" fill="#6cce59"/>
<path d="M532.5 66.449H544.5V103.647998H532.5Z" fill="#b4dd2c"/>
<path d="M532.5 29.25H544.5V66.449008H532.5Z" fill="#fde725"/>
<path stroke-width=".75" stroke-linecap="butt" stroke-miterlimit="2" stroke-linejoin="miter" fill="none" stroke="#000000" d="M532.5 29.25H544.5V401.25H532.5Z"/>
<text xml:space="preserve" transform="matrix(1.0000019 0 0 .9999981 0 0)" font-size="12.000023" font-family="TeXGyreHerosMakieRegular"><tspan y="405.62577" x="551.99899">0</tspan></text>
<text xml:space="preserve" transform="matrix(1 0 0 1 0 0)" font-size="12" font-family="TeXGyreHerosMakieRegular"><tspan y="405.625" x="558.6719 562.0079 568.6799">.00</tspan></text>
<text xml:space="preserve" transform="matrix(1.0000019 0 0 .9999981 0 0)" font-size="12.000023" font-family="TeXGyreHerosMakieRegular"><tspan y="405.62577" x="575.35049">0</tspan></text>
<text xml:space="preserve" transform="matrix(1 0 0 1 0 0)" font-size="12" font-family="TeXGyreHerosMakieRegular"><tspan y="405.625" x="582.02346">0</tspan></text>
<text xml:space="preserve" transform="matrix(1.000001 0 0 .99999907 0 0)" font-size="12.000034" font-family="TeXGyreHerosMakieRegular"><tspan y="277.99247" x="551.99948">0</tspan></text>
<text xml:space="preserve" transform="matrix(.99999907 0 0 1.000001 0 0)" font-size="12.000011" font-family="TeXGyreHerosMakieRegular"><tspan y="277.9919" x="558.6724 562.0084 568.6804">.00</tspan></text>
<text xml:space="preserve" transform="matrix(1.000001 0 0 .99999907 0 0)" font-size="12.000034" font-family="TeXGyreHerosMakieRegular"><tspan y="277.99247" x="575.351">0</tspan></text>
<text xml:space="preserve" transform="matrix(.99999907 0 0 1.000001 0 0)" font-size="12.000011" font-family="TeXGyreHerosMakieRegular"><tspan y="277.9919" x="582.024">1</tspan></text>
<text xml:space="preserve" transform="matrix(1.0000014 0 0 .99999859 0 0)" font-size="12.000029" font-family="TeXGyreHerosMakieRegular"><tspan y="150.35569" x="551.9992">0</tspan></text>
<text xml:space="preserve" transform="matrix(.9999995 0 0 1.0000005 0 0)" font-size="12.000006" font-family="TeXGyreHerosMakieRegular"><tspan y="150.3554" x="558.6721 562.0081 568.6801">.00</tspan></text>
<text xml:space="preserve" transform="matrix(1.0000014 0 0 .99999859 0 0)" font-size="12.000029" font-family="TeXGyreHerosMakieRegular"><tspan y="150.35569" x="575.35079">0</tspan></text>
<text xml:space="preserve" transform="matrix(.9999995 0 0 1.0000005 0 0)" font-size="12.000006" font-family="TeXGyreHerosMakieRegular"><tspan y="150.3554" x="582.02377">2</tspan></text>
<path stroke-width=".75" stroke-linecap="butt" stroke-miterlimit="2" stroke-linejoin="miter" fill="none" stroke="#000000" d="M127.625 401.625V406.125"/>
<path stroke-width=".75" stroke-linecap="butt" stroke-miterlimit="2" stroke-linejoin="miter" fill="none" stroke="#000000" d="M224.344 401.625V406.125"/>
<path stroke-width=".75" stroke-linecap="butt" stroke-miterlimit="2" stroke-linejoin="miter" fill="none" stroke="#000000" d="M321.063 401.625V406.125"/>
<path stroke-width=".75" stroke-linecap="butt" stroke-miterlimit="2" stroke-linejoin="miter" fill="none" stroke="#000000" d="M417.781 401.625V406.125"/>
<path stroke-width=".75" stroke-linecap="butt" stroke-miterlimit="2" stroke-linejoin="miter" fill="none" stroke="#000000" d="M514.5 401.625V406.125"/>
<path stroke-width=".75" stroke-linecap="butt" stroke-miterlimit="2" stroke-linejoin="miter" fill="none" stroke="#000000" d="M49.875 383.535H45.375"/>
<path stroke-width=".75" stroke-linecap="butt" stroke-miterlimit="2" stroke-linejoin="miter" fill="none" stroke="#000000" d="M49.875 294.965H45.375"/>
<path stroke-width=".75" stroke-linecap="butt" stroke-miterlimit="2" stroke-linejoin="miter" fill="none" stroke="#000000" d="M49.875 206.395H45.375"/>
<path stroke-width=".75" stroke-linecap="butt" stroke-miterlimit="2" stroke-linejoin="miter" fill="none" stroke="#000000" d="M49.875 117.82H45.375"/>
<path stroke-width=".75" stroke-linecap="butt" stroke-miterlimit="2" stroke-linejoin="miter" fill="none" stroke="#000000" d="M49.875 29.25H45.375"/>
<path stroke-width=".75" stroke-linecap="butt" stroke-miterlimit="2" stroke-linejoin="miter" fill="none" stroke="#000000" d="M544.875 401.25H549.375"/>
<path stroke-width=".75" stroke-linecap="butt" stroke-miterlimit="2" stroke-linejoin="miter" fill="none" stroke="#000000" d="M544.875 273.617H549.375"/>
<path stroke-width=".75" stroke-linecap="butt" stroke-miterlimit="2" stroke-linejoin="miter" fill="none" stroke="#000000" d="M544.875 145.984H549.375"/>
<path stroke-width=".75" stroke-linecap="butt" stroke-miterlimit="2" stroke-linejoin="miter" fill="none" stroke="#000000" d="M49.875 401.25H514.875"/>
<path stroke-width=".75" stroke-linecap="butt" stroke-miterlimit="2" stroke-linejoin="miter" fill="none" stroke="#000000" d="M50.25 401.625V28.875"/>
<path stroke-width=".75" stroke-linecap="butt" stroke-miterlimit="2" stroke-linejoin="miter" fill="none" stroke="#000000" d="M49.875 29.25H514.875"/>
<path stroke-width=".75" stroke-linecap="butt" stroke-miterlimit="2" stroke-linejoin="miter" fill="none" stroke="#000000" d="M514.5 401.625V28.875"/>
</g>
</svg>
