<svg xmlns="http://www.w3.org/2000/svg" xmlns:xlink="http://www.w3.org/1999/xlink" version="1.1" width="600pt" height="450pt" viewBox="0 0 600 450">
<defs>
<clipPath id="clip_0">
<path d="M50.25 29.25H507.75V401.25H50.25Z"/>
</clipPath>
<clipPath id="clip_1">
<path d="M50.25 46H359V191H50.25Z"/>
</clipPath>
<clipPath id="clip_2">
<path d="M50.25 71H289V187H50.25Z"/>
</clipPath>
<clipPath id="clip_3">
<path d="M50.25 77H235V183H50.25Z"/>
</clipPath>
<clipPath id="clip_4">
<path d="M50.25 82H191V179H50.25Z"/>
</clipPath>
<clipPath id="clip_5">
<path d="M50.25 88H155V174H50.25Z"/>
</clipPath>
<clipPath id="clip_6">
<path d="M50.25 93H124V170H50.25Z"/>
</clipPath>
<clipPath id="clip_7">
<path d="M50.25 99H98V166H50.25Z"/>
</clipPath>
<clipPath id="clip_8">
<path d="M50.25 104H77V162H50.25Z"/>
</clipPath>
<clipPath id="clip_9">
<path d="M50.25 110H56V158H50.25Z"/>
</clipPath>
</defs>
<g>
<path d="M0 0H600V450H0Z" fill="#ffffff"/>
<path d="M50.25 29.25H507.75V401.25H50.25Z" fill="#ffffff"/>
<path stroke-width=".75" stroke-linecap="butt" stroke-miterlimit="2" stroke-linejoin="miter" fill="none" stroke="#000000" stroke-opacity=".12" d="M126.5 401.25V29.25"/>
<path stroke-width=".75" stroke-linecap="butt" stroke-miterlimit="2" stroke-linejoin="miter" fill="none" stroke="#000000" stroke-opacity=".12" d="M221.813 401.25V29.25"/>
<path stroke-width=".75" stroke-linecap="butt" stroke-miterlimit="2" stroke-linejoin="miter" fill="none" stroke="#000000" stroke-opacity=".12" d="M317.125 401.25V29.25"/>
<path stroke-width=".75" stroke-linecap="butt" stroke-miterlimit="2" stroke-linejoin="miter" fill="none" stroke="#000000" stroke-opacity=".12" d="M412.438 401.25V29.25"/>
<path stroke-width=".75" stroke-linecap="butt" stroke-miterlimit="2" stroke-linejoin="miter" fill="none" stroke="#000000" stroke-opacity=".12" d="M507.75 401.25V29.25"/>
<path stroke-width=".75" stroke-linecap="butt" stroke-miterlimit="2" stroke-linejoin="miter" fill="none" stroke="#000000" stroke-opacity=".12" d="M50.25 383.535H507.75"/>
<path stroke-width=".75" stroke-linecap="butt" stroke-miterlimit="2" stroke-linejoin="miter" fill="none" stroke="#000000" stroke-opacity=".12" d="M50.25 294.965H507.75"/>
<path stroke-width=".75" stroke-linecap="butt" stroke-miterlimit="2" stroke-linejoin="miter" fill="none" stroke="#000000" stroke-opacity=".12" d="M50.25 206.395H507.75"/>
<path stroke-width=".75" stroke-linecap="butt" stroke-miterlimit="2" stroke-linejoin="miter" fill="none" stroke="#000000" stroke-opacity=".12" d="M50.25 117.82H507.75"/>
<path stroke-width=".75" stroke-linecap="butt" stroke-miterlimit="2" stroke-linejoin="miter" fill="none" stroke="#000000" stroke-opacity=".12" d="M50.25 29.25H507.75"/>
<text xml:space="preserve" transform="matrix(1.000001 0 0 .99999907 0 0)" font-size="12.000011" font-family="TeXGyreHerosMakieRegular"><tspan y="435.59419" x="268.7146">&#x03c7;</tspan></text>
<text xml:space="preserve" transform="matrix(1.000001 0 0 .99999907 0 0)" font-size="12.000011" font-family="TeXGyreHerosMakieRegular"><tspan y="435.59419" x="276.46659">B</tspan></text>
<text xml:space="preserve" transform="matrix(1.000001 0 0 .99999907 0 0)" font-size="12.000011" font-family="DejaVuSans"><tspan y="435.59419" x="284.4706">&#x2080;</tspan></text>
<text xml:space="preserve" transform="matrix(.9999976 0 0 1.0000024 0 0)" font-size="12.000017" font-family="TeXGyreHerosMakieRegular"><tspan y="419.36228" x="118.16044">3</tspan></text>
<text xml:space="preserve" transform="matrix(.99999859 0 0 1.0000014 0 0)" font-size="12.000029" font-family="TeXGyreHerosMakieRegular"><tspan y="419.36268" x="124.83221">.</tspan></text>
<text xml:space="preserve" transform="matrix(.9999981 0 0 1.0000019 0 0)" font-size="12.000023" font-family="TeXGyreHerosMakieRegular"><tspan y="419.3625" x="128.16822 213.47638 220.14839 223.48439 308.78575 315.45777">13.23.</tspan></text>
<text xml:space="preserve" transform="matrix(.99999907 0 0 1.000001 0 0)" font-size="12.000034" font-family="TeXGyreHerosMakieRegular"><tspan y="419.36289" x="318.79328">3</tspan></text>
<text xml:space="preserve" transform="matrix(.9999981 0 0 1.0000019 0 0)" font-size="12.000023" font-family="TeXGyreHerosMakieRegular"><tspan y="419.3625" x="404.09843">3</tspan></text>
<text xml:space="preserve" transform="matrix(.9999962 0 0 1.0000038 0 0)" font-size="12" font-family="TeXGyreHerosMakieRegular"><tspan y="419.3617" x="410.7711">.</tspan></text>
<text xml:space="preserve" transform="matrix(1 0 0 1 0 0)" font-size="12.000046" font-family="TeXGyreHerosMakieRegular"><tspan y="419.36329" x="414.10548">4</tspan></text>
<text xml:space="preserve" transform="matrix(.9999981 0 0 1.0000019 0 0)" font-size="12.000023" font-family="TeXGyreHerosMakieRegular"><tspan y="419.3625" x="499.4111">3</tspan></text>
<text xml:space="preserve" transform="matrix(.9999962 0 0 1.0000038 0 0)" font-size="12" font-family="TeXGyreHerosMakieRegular"><tspan y="419.3617" x="506.08396">.</tspan></text>
<text xml:space="preserve" transform="matrix(1 0 0 1 0 0)" font-size="12.000046" font-family="TeXGyreHerosMakieRegular"><tspan y="419.36329" x="509.41798">5</tspan></text>
<text xml:space="preserve" transform="matrix(0 -.9999988 1.0000013 0 0 0)" font-size="11.999991" font-family="TeXGyreHerosMakieRegular"><tspan y="22.289034" x="-219.80886">&#x03a9;</tspan></text>
<text xml:space="preserve" transform="matrix(1.0000004 0 0 .9999996 0 0)" font-size="12.000005" font-family="TeXGyreHerosMakieRegular"><tspan y="387.91035" x="35.328115">0</tspan><tspan y="299.34" x="35.328115">5</tspan></text>
<text xml:space="preserve" transform="matrix(.99999859 0 0 1.0000014 0 0)" font-size="12.000006" font-family="TeXGyreHerosMakieRegular"><tspan y="210.76532" x="28.65629">1</tspan></text>
<text xml:space="preserve" transform="matrix(.99999937 0 0 1.0000006 0 0)" font-size="12.000016" font-family="TeXGyreHerosMakieRegular"><tspan y="210.76552" x="35.32815">0</tspan></text>
<text xml:space="preserve" transform="matrix(1 0 0 1 0 0)" font-size="11.999989" font-family="TeXGyreHerosMakieRegular"><tspan y="122.19531" x="28.65625">1</tspan></text>
<text xml:space="preserve" transform="matrix(1.0000008 0 0 .9999991 0 0)" font-size="11.999999" font-family="TeXGyreHerosMakieRegular"><tspan y="122.19543" x="35.3281">5</tspan></text>
<text xml:space="preserve" transform="matrix(.999999 0 0 1.0000011 0 0)" font-size="12.000001" font-family="TeXGyreHerosMakieRegular"><tspan y="33.624967" x="28.65628">2</tspan></text>
<text xml:space="preserve" transform="matrix(.99999979 0 0 1.0000002 0 0)" font-size="12.000011" font-family="TeXGyreHerosMakieRegular"><tspan y="33.624994" x="35.328134">0</tspan></text>
<text xml:space="preserve" transform="matrix(1.0000013 0 0 .9999986 0 0)" font-size="12.000007" font-family="TeXGyreHerosMakieBold" font-weight="bold"><tspan y="23.632847" x="241.99188">C</tspan></text>
<text xml:space="preserve" transform="matrix(1.0000004 0 0 .9999996 0 0)" font-size="11.999995" font-family="TeXGyreHerosMakieBold" font-weight="bold"><tspan y="23.632824" x="250.65618">o</tspan></text>
<text xml:space="preserve" transform="matrix(.99999949 0 0 1.0000006 0 0)" font-size="11.999984" font-family="TeXGyreHerosMakieBold" font-weight="bold"><tspan y="23.6328" x="257.98844">n</tspan></text>
<text xml:space="preserve" transform="matrix(1.0000004 0 0 .9999996 0 0)" font-size="11.999995" font-family="TeXGyreHerosMakieBold" font-weight="bold"><tspan y="23.632824" x="265.32023 271.99223 279.32423 283.99223 288.66023">curre</tspan></text>
<text xml:space="preserve" transform="matrix(.99999949 0 0 1.0000006 0 0)" font-size="11.999984" font-family="TeXGyreHerosMakieBold" font-weight="bold"><tspan y="23.6328" x="295.3322">n</tspan></text>
<text xml:space="preserve" transform="matrix(1.0000004 0 0 .9999996 0 0)" font-size="11.999995" font-family="TeXGyreHerosMakieBold" font-weight="bold"><tspan y="23.632824" x="302.66398">c</tspan></text>
<text xml:space="preserve" transform="matrix(1.0000013 0 0 .9999986 0 0)" font-size="12.000007" font-family="TeXGyreHerosMakieBold" font-weight="bold"><tspan y="23.632847" x="309.33555">e</tspan></text>
<g clip-path="url(#clip_0)">
<path d="M507.75 29.25H50.25V46.727L91.84 60.859 117.113 70.582 133.434 71.836 175.023 75.102 216.613 79.176 258.203 84.59 299.797 92.352 341.387 104.73 358.438 111.918 341.387 119.078 299.797 130.379 258.203 136.797 216.613 140.934 175.023 143.813 133.434 145.918 109.824 153.25 91.84 171.121 50.25 190.449V401.25H507.75ZM507.75 29.25" fill="#440154"/>
</g>
<g clip-path="url(#clip_1)">
<path d="M50.25 46.727V71.973L91.84 75.926 133.434 80.477 175.023 85.996 216.613 93.074 258.203 102.66 288.43 111.918 258.203 120.344 216.613 128.617 175.023 134.375 133.434 138.59 91.84 151.445 90.637 153.25 50.25 186.316V190.449L91.84 171.121 109.824 153.25 133.434 145.918 175.023 143.813 216.613 140.934 258.203 136.797 299.797 130.379 341.387 119.078 358.438 111.918 341.387 104.73 299.797 92.352 258.203 84.59 216.613 79.176 175.023 75.102 133.434 71.836 117.113 70.582 91.84 60.859ZM50.25 46.727" fill="#482878"/>
</g>
<g clip-path="url(#clip_2)">
<path d="M258.203 102.66 216.613 93.074 175.023 85.996 133.434 80.477 91.84 75.926 50.25 71.973V77.465L91.84 82.816 133.434 89.117 175.023 96.887 216.613 106.969 234.164 111.918 216.613 116.301 175.023 124.938 133.434 131.258 91.84 143.879 85.59 153.25 50.25 182.184V186.316L90.637 153.25 91.84 151.445 133.434 138.59 175.023 134.375 216.613 128.617 258.203 120.344 288.43 111.918ZM258.203 102.66" fill="#3e4a89"/>
</g>
<g clip-path="url(#clip_3)">
<path d="M216.613 106.969 175.023 96.887 133.434 89.117 91.84 82.816 50.25 77.465V82.957L91.84 89.707 133.434 97.762 175.023 107.781 190.449 111.918 175.023 115.5 133.434 123.926 91.84 136.313 80.539 153.25 50.25 178.051V182.184L85.59 153.25 91.84 143.879 133.434 131.258 175.023 124.938 216.613 116.301 234.164 111.918ZM216.613 106.969" fill="#31688e"/>
</g>
<g clip-path="url(#clip_4)">
<path d="M175.023 107.781 133.434 97.762 91.84 89.707 50.25 82.957V88.449L91.84 96.594 133.434 106.402 154.523 111.918 133.434 116.594 91.84 128.746 75.492 153.25 50.25 173.918V178.051L80.539 153.25 91.84 136.313 133.434 123.926 175.023 115.5 190.449 111.918ZM175.023 107.781" fill="#26838e"/>
</g>
<g clip-path="url(#clip_5)">
<path d="M133.434 106.402 91.84 96.594 50.25 88.449V93.941L91.84 103.484 123.941 111.918 91.84 121.18 70.445 153.25 50.25 169.785V173.918L75.492 153.25 91.84 128.746 133.434 116.594 154.523 111.918ZM133.434 106.402" fill="#1f9d89"/>
</g>
<g clip-path="url(#clip_6)">
<path d="M91.84 103.484 50.25 93.941V99.434L91.84 110.375 97.715 111.918 91.84 113.613 65.395 153.25 50.25 165.648V169.785L70.445 153.25 91.84 121.18 123.941 111.918ZM91.84 103.484" fill="#35b779"/>
</g>
<g clip-path="url(#clip_7)">
<path d="M91.84 110.375 50.25 99.434V104.922L76.094 111.918 60.348 153.25 50.25 161.516V165.648L65.395 153.25 91.84 113.613 97.715 111.918ZM91.84 110.375" fill="#6cce59"/>
</g>
<g clip-path="url(#clip_8)">
<path d="M55.801 111.918 55.297 153.25 50.25 157.383V161.516L60.348 153.25 76.094 111.918 50.25 104.922V110.414ZM55.801 111.918" fill="#b4dd2c"/>
</g>
<g clip-path="url(#clip_9)">
<path d="M55.801 111.918 50.25 110.414V157.383L55.297 153.25ZM55.801 111.918" fill="#fde725"/>
</g>
<path d="M525.75 364.051H537.75V401.25H525.75Z" fill="#440154"/>
<path d="M525.75 326.852H537.75V364.051H525.75Z" fill="#482878"/>
<path d="M525.75 289.652H537.75V326.851H525.75Z" fill="#3e4a89"/>
<path d="M525.75 252.449H537.75V289.648H525.75Z" fill="#31688e"/>
<path d="M525.75 215.25H537.75V252.449H525.75Z" fill="#26838e"/>
<path d="M525.75 178.051H537.75V215.25H525.75Z" fill="#1f9d89"/>
<path d="M525.75 140.852H537.75V178.05101H525.75Z" fill="#35b779"/>
<path d="M525.75 103.652H537.75V140.851H525.75Z" fill="#6cce59"/>
<path d="M525.75 66.449H537.75V103.647998H525.75Z" fill="#b4dd2c"/>
<path d="M525.75 29.25H537.75V66.449008H525.75Z" fill="#fde725"/>
<path stroke-width=".75" stroke-linecap="butt" stroke-miterlimit="2" stroke-linejoin="miter" fill="none" stroke="#000000" d="M525.75 29.25H537.75V401.25H525.75Z"/>
<text xml:space="preserve" transform="matrix(1 0 0 1 0 0)" font-size="12" font-family="TeXGyreHerosMakieRegular"><tspan y="405.625" x="545.25 551.922 555.258">0.0</tspan></text>
<text xml:space="preserve" transform="matrix(.9999981 0 0 1.0000019 0 0)" font-size="11.999977" font-family="TeXGyreHerosMakieRegular"><tspan y="405.62425" x="561.9308">0</tspan></text>
<text xml:space="preserve" transform="matrix(1 0 0 1 0 0)" font-size="12" font-family="TeXGyreHerosMakieRegular"><tspan y="405.625" x="568.60159 575.27359 581.94558">000</tspan></text>
<text xml:space="preserve" transform="matrix(1.000001 0 0 .99999907 0 0)" font-size="11.999989" font-family="TeXGyreHerosMakieRegular"><tspan y="299.1487" x="545.24948 551.92147 555.25747">0.0</tspan></text>
<text xml:space="preserve" transform="matrix(.99999907 0 0 1.000001 0 0)" font-size="11.999966" font-family="TeXGyreHerosMakieRegular"><tspan y="299.14817" x="561.93026">0</tspan></text>
<text xml:space="preserve" transform="matrix(1.000001 0 0 .99999907 0 0)" font-size="11.999989" font-family="TeXGyreHerosMakieRegular"><tspan y="299.1487" x="568.601 575.273 581.945">005</tspan></text>
<text xml:space="preserve" transform="matrix(1 0 0 1 0 0)" font-size="12" font-family="TeXGyreHerosMakieRegular"><tspan y="192.66797" x="545.25 551.922 555.258">0.0</tspan></text>
<text xml:space="preserve" transform="matrix(.9999981 0 0 1.0000019 0 0)" font-size="11.999977" font-family="TeXGyreHerosMakieRegular"><tspan y="192.6676" x="561.9308">0</tspan></text>
<text xml:space="preserve" transform="matrix(1 0 0 1 0 0)" font-size="12" font-family="TeXGyreHerosMakieRegular"><tspan y="192.66797" x="568.60159 575.27359 581.94558">010</tspan></text>
<text xml:space="preserve" transform="matrix(.9999995 0 0 1.0000005 0 0)" font-size="12.000006" font-family="TeXGyreHerosMakieRegular"><tspan y="86.19137" x="545.25027 551.92227 555.25827">0.0</tspan></text>
<text xml:space="preserve" transform="matrix(.9999976 0 0 1.0000024 0 0)" font-size="11.999983" font-family="TeXGyreHerosMakieRegular"><tspan y="86.1912" x="561.931">0</tspan></text>
<text xml:space="preserve" transform="matrix(.9999995 0 0 1.0000005 0 0)" font-size="12.000006" font-family="TeXGyreHerosMakieRegular"><tspan y="86.19137" x="568.6018 575.2738 581.94589">015</tspan></text>
<path stroke-width=".75" stroke-linecap="butt" stroke-miterlimit="2" stroke-linejoin="miter" fill="none" stroke="#000000" d="M126.5 401.625V406.125"/>
<path stroke-width=".75" stroke-linecap="butt" stroke-miterlimit="2" stroke-linejoin="miter" fill="none" stroke="#000000" d="M221.813 401.625V406.125"/>
<path stroke-width=".75" stroke-linecap="butt" stroke-miterlimit="2" stroke-linejoin="miter" fill="none" stroke="#000000" d="M317.125 401.625V406.125"/>
<path stroke-width=".75" stroke-linecap="butt" stroke-miterlimit="2" stroke-linejoin="miter" fill="none" stroke="#000000" d="M412.438 401.625V406.125"/>
<path stroke-width=".75" stroke-linecap="butt" stroke-miterlimit="2" stroke-linejoin="miter" fill="none" stroke="#000000" d="M507.75 401.625V406.125"/>
<path stroke-width=".75" stroke-linecap="butt" stroke-miterlimit="2" stroke-linejoin="miter" fill="none" stroke="#000000" d="M49.875 383.535H45.375"/>
<path stroke-width=".75" stroke-linecap="butt" stroke-miterlimit="2" stroke-linejoin="miter" fill="none" stroke="#000000" d="M49.875 294.965H45.375"/>
<path stroke-width=".75" stroke-linecap="butt" stroke-miterlimit="2" stroke-linejoin="miter" fill="none" stroke="#000000" d="M49.875 206.395H45.375"/>
<path stroke-width=".75" stroke-linecap="butt" stroke-miterlimit="2" stroke-linejoin="miter" fill="none" stroke="#000000" d="M49.875 117.82H45.375"/>
<path stroke-width=".75" stroke-linecap="butt" stroke-miterlimit="2" stroke-linejoin="miter" fill="none" stroke="#000000" d="M49.875 29.25H45.375"/>
<path stroke-width=".75" stroke-linecap="butt" stroke-miterlimit="2" stroke-linejoin="miter" fill="none" stroke="#000000" d="M538.125 401.25H542.625"/>
<path stroke-width=".75" stroke-linecap="butt" stroke-miterlimit="2" stroke-linejoin="miter" fill="none" stroke="#000000" d="M538.125 294.773H542.625"/>
<path stroke-width=".75" stroke-linecap="butt" stroke-miterlimit="2" stroke-linejoin="miter" fill="none" stroke="#000000" d="M538.125 188.297H542.625"/>
<path stroke-width=".75" stroke-linecap="butt" stroke-miterlimit="2" stroke-linejoin="miter" fill="none" stroke="#000000" d="M538.125 81.82H542.625"/>
<path stroke-width=".75" stroke-linecap="butt" stroke-miterlimit="2" stroke-linejoin="miter" fill="none" stroke="#000000" d="M49.875 401.25H508.125"/>
<path stroke-width=".75" stroke-linecap="butt" stroke-miterlimit="2" stroke-linejoin="miter" fill="none" stroke="#000000" d="M50.25 401.625V28.875"/>
<path stroke-width=".75" stroke-linecap="butt" stroke-miterlimit="2" stroke-linejoin="miter" fill="none" stroke="#000000" d="M49.875 29.25H508.125"/>
<path stroke-width=".75" stroke-linecap="butt" stroke-miterlimit="2" stroke-linejoin="miter" fill="none" stroke="#000000" d="M507.75 401.625V28.875"/>
</g>
</svg>
