<svg xmlns="http://www.w3.org/2000/svg" xmlns:xlink="http://www.w3.org/1999/xlink" version="1.1" width="600pt" height="450pt" viewBox="0 0 600 450">
<defs>
<clipPath id="clip_0">
<path d="M50.25 29.25H507.75V401.25H50.25Z"/>
</clipPath>
<clipPath id="clip_1">
<path d="M50.25 52H330V191H50.25Z"/>
</clipPath>
<clipPath id="clip_2">
<path d="M50.25 74H250V187H50.25Z"/>
</clipPath>
<clipPath id="clip_3">
<path d="M50.25 81H192V183H50.25Z"/>
</clipPath>
<clipPath id="clip_4">
<path d="M50.25 88H148V179H50.25Z"/>
</clipPath>
<clipPath id="clip_5">
<path d="M50.25 95H112V174H50.25Z"/>
</clipPath>
<clipPath id="clip_6">
<path d="M50.25 102H83V170H50.25Z"/>
</clipPath>
<clipPath id="clip_7">
<path d="M50.25 109H69V166H50.25Z"/>
</clipPath>
<clipPath id="clip_8">
<path d="M50.25 122H63V162H50.25Z"/>
</clipPath>
<clipPath id="clip_9">
<path d="M50.25 137H57V158H50.25Z"/>
</clipPath>
</defs>
<g>
<path d="M0 0H600V450H0Z" fill="#ffffff"/>
<path d="M50.25 29.25H507.75V401.25H50.25Z" fill="#ffffff"/>
<path stroke-width=".75" stroke-linecap="butt" stroke-miterlimit="2" stroke-linejoin="miter" fill="none" stroke="#000000" stroke-opacity=".12" d="M50.25 401.25V29.25"/>
<path stroke-width=".75" stroke-linecap="butt" stroke-miterlimit="2" stroke-linejoin="miter" fill="none" stroke="#000000" stroke-opacity=".12" d="M141.75 401.25V29.25"/>
<path stroke-width=".75" stroke-linecap="butt" stroke-miterlimit="2" stroke-linejoin="miter" fill="none" stroke="#000000" stroke-opacity=".12" d="M233.25 401.25V29.25"/>
<path stroke-width=".75" stroke-linecap="butt" stroke-miterlimit="2" stroke-linejoin="miter" fill="none" stroke="#000000" stroke-opacity=".12" d="M324.75 401.25V29.25"/>
<path stroke-width=".75" stroke-linecap="butt" stroke-miterlimit="2" stroke-linejoin="miter" fill="none" stroke="#000000" stroke-opacity=".12" d="M416.25 401.25V29.25"/>
<path stroke-width=".75" stroke-linecap="butt" stroke-miterlimit="2" stroke-linejoin="miter" fill="none" stroke="#000000" stroke-opacity=".12" d="M507.75 401.25V29.25"/>
<path stroke-width=".75" stroke-linecap="butt" stroke-miterlimit="2" stroke-linejoin="miter" fill="none" stroke="#000000" stroke-opacity=".12" d="M50.25 383.535H507.75"/>
<path stroke-width=".75" stroke-linecap="butt" stroke-miterlimit="2" stroke-linejoin="miter" fill="none" stroke="#000000" stroke-opacity=".12" d="M50.25 294.965H507.75"/>
<path stroke-width=".75" stroke-linecap="butt" stroke-miterlimit="2" stroke-linejoin="miter" fill="none" stroke="#000000" stroke-opacity=".12" d="M50.25 206.395H507.75"/>
<path stroke-width=".75" stroke-linecap="butt" stroke-miterlimit="2" stroke-linejoin="miter" fill="none" stroke="#000000" stroke-opacity=".12" d="M50.25 117.82H507.75"/>
<path stroke-width=".75" stroke-linecap="butt" stroke-miterlimit="2" stroke-linejoin="miter" fill="none" stroke="#000000" stroke-opacity=".12" d="M50.25 29.25H507.75"/>
<text xml:space="preserve" transform="matrix(1.000001 0 0 .99999907 0 0)" font-size="12.000011" font-family="TeXGyreHerosMakieRegular"><tspan y="435.59419" x="268.7146">&#x03c7;</tspan></text>
<text xml:space="preserve" transform="matrix(1.000001 0 0 .99999907 0 0)" font-size="12.000011" font-family="TeXGyreHerosMakieRegular"><tspan y="435.59419" x="276.46659">B</tspan></text>
<text xml:space="preserve" transform="matrix(1.000001 0 0 .99999907 0 0)" font-size="12.000011" font-family="DejaVuSans"><tspan y="435.59419" x="284.4706">&#x2080;</tspan></text>
<text xml:space="preserve" transform="matrix(.99999836 0 0 1.0000017 0 0)" font-size="12.000026" font-family="TeXGyreHerosMakieRegular"><tspan y="419.36259" x="41.910226 48.58224 51.91825">3.0</tspan></text>
<text xml:space="preserve" transform="matrix(.99999716 0 0 1.0000029 0 0)" font-size="12.000011" font-family="TeXGyreHerosMakieRegular"><tspan y="419.3621" x="133.41054">3</tspan></text>
<text xml:space="preserve" transform="matrix(.9999981 0 0 1.0000019 0 0)" font-size="12.000023" font-family="TeXGyreHerosMakieRegular"><tspan y="419.3625" x="140.0823">.</tspan></text>
<text xml:space="preserve" transform="matrix(.99999859 0 0 1.0000014 0 0)" font-size="12.000029" font-family="TeXGyreHerosMakieRegular"><tspan y="419.36268" x="143.41817">1</tspan></text>
<text xml:space="preserve" transform="matrix(.9999981 0 0 1.0000019 0 0)" font-size="12.000023" font-family="TeXGyreHerosMakieRegular"><tspan y="419.3625" x="224.91059">3</tspan></text>
<text xml:space="preserve" transform="matrix(.99999907 0 0 1.000001 0 0)" font-size="12.000034" font-family="TeXGyreHerosMakieRegular"><tspan y="419.36289" x="231.58225">.</tspan></text>
<text xml:space="preserve" transform="matrix(.9999981 0 0 1.0000019 0 0)" font-size="12.000023" font-family="TeXGyreHerosMakieRegular"><tspan y="419.3625" x="234.91841">2</tspan></text>
<text xml:space="preserve" transform="matrix(.99999907 0 0 1.000001 0 0)" font-size="12.000034" font-family="TeXGyreHerosMakieRegular"><tspan y="419.36289" x="316.41047">3</tspan></text>
<text xml:space="preserve" transform="matrix(.99999716 0 0 1.0000029 0 0)" font-size="12.000011" font-family="TeXGyreHerosMakieRegular"><tspan y="419.3621" x="323.08296">.</tspan></text>
<text xml:space="preserve" transform="matrix(.99999907 0 0 1.000001 0 0)" font-size="12.000034" font-family="TeXGyreHerosMakieRegular"><tspan y="419.36289" x="326.41828">3</tspan></text>
<text xml:space="preserve" transform="matrix(.9999981 0 0 1.0000019 0 0)" font-size="12.000023" font-family="TeXGyreHerosMakieRegular"><tspan y="419.3625" x="407.91093 414.58296 417.91896 499.4111">3.43</tspan></text>
<text xml:space="preserve" transform="matrix(.9999962 0 0 1.0000038 0 0)" font-size="12" font-family="TeXGyreHerosMakieRegular"><tspan y="419.3617" x="506.08396">.</tspan></text>
<text xml:space="preserve" transform="matrix(1 0 0 1 0 0)" font-size="12.000046" font-family="TeXGyreHerosMakieRegular"><tspan y="419.36329" x="509.41798">5</tspan></text>
<text xml:space="preserve" transform="matrix(0 -.9999988 1.0000013 0 0 0)" font-size="11.999991" font-family="TeXGyreHerosMakieRegular"><tspan y="22.289034" x="-219.80886">&#x03a9;</tspan></text>
<text xml:space="preserve" transform="matrix(1.0000004 0 0 .9999996 0 0)" font-size="12.000005" font-family="TeXGyreHerosMakieRegular"><tspan y="387.91035" x="35.328115">0</tspan><tspan y="299.34" x="35.328115">5</tspan></text>
<text xml:space="preserve" transform="matrix(.99999859 0 0 1.0000014 0 0)" font-size="12.000006" font-family="TeXGyreHerosMakieRegular"><tspan y="210.76532" x="28.65629">1</tspan></text>
<text xml:space="preserve" transform="matrix(.99999937 0 0 1.0000006 0 0)" font-size="12.000016" font-family="TeXGyreHerosMakieRegular"><tspan y="210.76552" x="35.32815">0</tspan></text>
<text xml:space="preserve" transform="matrix(1 0 0 1 0 0)" font-size="11.999989" font-family="TeXGyreHerosMakieRegular"><tspan y="122.19531" x="28.65625">1</tspan></text>
<text xml:space="preserve" transform="matrix(1.0000008 0 0 .9999991 0 0)" font-size="11.999999" font-family="TeXGyreHerosMakieRegular"><tspan y="122.19543" x="35.3281">5</tspan></text>
<text xml:space="preserve" transform="matrix(.999999 0 0 1.0000011 0 0)" font-size="12.000001" font-family="TeXGyreHerosMakieRegular"><tspan y="33.624967" x="28.65628">2</tspan></text>
<text xml:space="preserve" transform="matrix(.99999979 0 0 1.0000002 0 0)" font-size="12.000011" font-family="TeXGyreHerosMakieRegular"><tspan y="33.624994" x="35.328134">0</tspan></text>
<text xml:space="preserve" transform="matrix(1.0000013 0 0 .9999986 0 0)" font-size="12.000007" font-family="TeXGyreHerosMakieBold" font-weight="bold"><tspan y="23.632847" x="241.99188">C</tspan></text>
<text xml:space="preserve" transform="matrix(1.0000004 0 0 .9999996 0 0)" font-size="11.999995" font-family="TeXGyreHerosMakieBold" font-weight="bold"><tspan y="23.632824" x="250.65618">o</tspan></text>
<text xml:space="preserve" transform="matrix(.99999949 0 0 1.0000006 0 0)" font-size="11.999984" font-family="TeXGyreHerosMakieBold" font-weight="bold"><tspan y="23.6328" x="257.98844">n</tspan></text>
<text xml:space="preserve" transform="matrix(1.0000004 0 0 .9999996 0 0)" font-size="11.999995" font-family="TeXGyreHerosMakieBold" font-weight="bold"><tspan y="23.632824" x="265.32023 271.99223 279.32423 283.99223 288.66023">curre</tspan></text>
<text xml:space="preserve" transform="matrix(.99999949 0 0 1.0000006 0 0)" font-size="11.999984" font-family="TeXGyreHerosMakieBold" font-weight="bold"><tspan y="23.6328" x="295.3322">n</tspan></text>
<text xml:space="preserve" transform="matrix(1.0000004 0 0 .9999996 0 0)" font-size="11.999995" font-family="TeXGyreHerosMakieBold" font-weight="bold"><tspan y="23.632824" x="302.66398">c</tspan></text>
<text xml:space="preserve" transform="matrix(1.0000013 0 0 .9999986 0 0)" font-size="12.000007" font-family="TeXGyreHerosMakieBold" font-weight="bold"><tspan y="23.632847" x="309.33555">e</tspan></text>
<g clip-path="url(#clip_0)">
<path d="M507.75 29.25H50.25V52.977L90.547 70.582 91.84 70.711 133.434 74.254 175.023 78.445 216.613 83.723 258.203 90.844 299.797 101.25 329.27 111.918 299.797 121.988 258.203 131.078 216.613 136.844 175.023 140.813 133.434 143.707 120.574 153.25 91.84 181.805 50.25 190.449V401.25H507.75ZM507.75 29.25" fill="#440154"/>
</g>
<g clip-path="url(#clip_1)">
<path d="M50.25 52.977V74.484L91.84 79.613 133.434 85.559 175.023 92.852 216.613 102.281 249.59 111.918 216.613 120.438 175.023 128.375 133.434 134.168 107.715 153.25 91.84 169.027 50.25 186.316V190.449L91.84 181.805 120.574 153.25 133.434 143.707 175.023 140.813 216.613 136.844 258.203 131.078 299.797 121.988 329.27 111.918 299.797 101.25 258.203 90.844 216.613 83.723 175.023 78.445 133.434 74.254 91.84 70.711 90.547 70.582ZM50.25 52.977" fill="#482878"/>
</g>
<g clip-path="url(#clip_2)">
<path d="M216.613 102.281 175.023 92.852 133.434 85.559 91.84 79.613 50.25 74.484V81.484L91.84 88.52 133.434 96.859 175.023 107.254 191.754 111.918 175.023 115.941 133.434 124.625 94.859 153.25 91.84 156.25 50.25 182.184V186.316L91.84 169.027 107.715 153.25 133.434 134.168 175.023 128.375 216.613 120.438 249.59 111.918ZM216.613 102.281" fill="#3e4a89"/>
</g>
<g clip-path="url(#clip_3)">
<path d="M175.023 107.254 133.434 96.859 91.84 88.52 50.25 81.484V88.484L91.84 97.422 133.434 108.164 147.125 111.918 133.434 115.086 91.84 140.031 87.137 153.25 50.25 178.051V182.184L91.84 156.25 94.859 153.25 133.434 124.625 175.023 115.941 191.754 111.918ZM175.023 107.254" fill="#31688e"/>
</g>
<g clip-path="url(#clip_4)">
<path d="M133.434 108.164 91.84 97.422 50.25 88.484V95.484L91.84 106.328 111.992 111.918 91.84 122.758 80.988 153.25 50.25 173.918V178.051L87.137 153.25 91.84 140.031 133.434 115.086 147.125 111.918ZM133.434 108.164" fill="#26838e"/>
</g>
<g clip-path="url(#clip_5)">
<path d="M91.84 106.328 50.25 95.484V102.484L82.84 111.918 74.84 153.25 50.25 169.785V173.918L80.988 153.25 91.84 122.758 111.992 111.918ZM91.84 106.328" fill="#1f9d89"/>
</g>
<g clip-path="url(#clip_6)">
<path d="M58.66 111.918 68.691 153.25 50.25 165.648V169.785L74.84 153.25 82.84 111.918 50.25 102.484V109.484ZM58.66 111.918" fill="#35b779"/>
</g>
<g clip-path="url(#clip_7)">
<path d="M58.66 111.918 50.25 109.484V122.082L62.547 153.25 50.25 161.516V165.648L68.691 153.25ZM58.66 111.918" fill="#6cce59"/>
</g>
<g clip-path="url(#clip_8)">
<path d="M50.25 137.664 56.398 153.25 50.25 157.383V161.516L62.547 153.25 50.25 122.082ZM50.25 137.664" fill="#b4dd2c"/>
</g>
<g clip-path="url(#clip_9)">
<path d="M50.25 153.25V157.383L56.398 153.25 50.25 137.664ZM50.25 153.25" fill="#fde725"/>
</g>
<path d="M525.75 364.051H537.75V401.25H525.75Z" fill="#440154"/>
<path d="M525.75 326.852H537.75V364.051H525.75Z" fill="#482878"/>
<path d="M525.75 289.652H537.75V326.851H525.75Z" fill="#3e4a89"/>
<path d="M525.75 252.449H537.75V289.648H525.75Z" fill="#31688e"/>
<path d="M525.75 215.25H537.75V252.449H525.75Z" fill="#26838e"/>
<path d="M525.75 178.051H537.75V215.25H525.75Z" fill="#1f9d89"/>
<path d="M525.75 140.852H537.75V178.05101H525.75Z" fill="#35b779"/>
<path d="M525.75 103.652H537.75V140.851H525.75Z" fill="#6cce59"/>
<path d="M525.75 66.449H537.75V103.647998H525.75Z" fill="#b4dd2c"/>
<path d="M525.75 29.25H537.75V66.449008H525.75Z" fill="#fde725"/>
<path stroke-width=".75" stroke-linecap="butt" stroke-miterlimit="2" stroke-linejoin="miter" fill="none" stroke="#000000" d="M525.75 29.25H537.75V401.25H525.75Z"/>
<text xml:space="preserve" transform="matrix(1 0 0 1 0 0)" font-size="12" font-family="TeXGyreHerosMakieRegular"><tspan y="405.625" x="545.25 551.922 555.258">0.0</tspan></text>
<text xml:space="preserve" transform="matrix(.9999981 0 0 1.0000019 0 0)" font-size="11.999977" font-family="TeXGyreHerosMakieRegular"><tspan y="405.62425" x="561.9308">0</tspan></text>
<text xml:space="preserve" transform="matrix(1 0 0 1 0 0)" font-size="12" font-family="TeXGyreHerosMakieRegular"><tspan y="405.625" x="568.60159 575.27359 581.94558">000</tspan><tspan y="329.0078" x="545.25 551.922 555.258">0.0</tspan></text>
<text xml:space="preserve" transform="matrix(.9999981 0 0 1.0000019 0 0)" font-size="11.999977" font-family="TeXGyreHerosMakieRegular"><tspan y="329.00718" x="561.9308">0</tspan></text>
<text xml:space="preserve" transform="matrix(1 0 0 1 0 0)" font-size="12" font-family="TeXGyreHerosMakieRegular"><tspan y="329.0078" x="568.60159 575.27359 581.94558">005</tspan></text>
<text xml:space="preserve" transform="matrix(.99999907 0 0 1.000001 0 0)" font-size="12.000011" font-family="TeXGyreHerosMakieRegular"><tspan y="252.39429" x="545.25057 551.92257 555.25857">0.0</tspan></text>
<text xml:space="preserve" transform="matrix(.99999716 0 0 1.0000029 0 0)" font-size="11.999989" font-family="TeXGyreHerosMakieRegular"><tspan y="252.39382" x="561.9313">0</tspan></text>
<text xml:space="preserve" transform="matrix(.99999907 0 0 1.000001 0 0)" font-size="12.000011" font-family="TeXGyreHerosMakieRegular"><tspan y="252.39429" x="568.6021 575.2741 581.9461">010</tspan></text>
<text xml:space="preserve" transform="matrix(1.0000005 0 0 .9999995 0 0)" font-size="11.999994" font-family="TeXGyreHerosMakieRegular"><tspan y="175.78133" x="545.24978 551.92178 555.25778">0.0</tspan></text>
<text xml:space="preserve" transform="matrix(.99999859 0 0 1.0000014 0 0)" font-size="11.999971" font-family="TeXGyreHerosMakieRegular"><tspan y="175.781" x="561.9305">0</tspan></text>
<text xml:space="preserve" transform="matrix(1.0000005 0 0 .9999995 0 0)" font-size="11.999994" font-family="TeXGyreHerosMakieRegular"><tspan y="175.78133" x="568.6013 575.2733 581.94528">015</tspan><tspan y="99.16411" x="545.24978 551.92178 555.25778">0.0</tspan></text>
<text xml:space="preserve" transform="matrix(.99999859 0 0 1.0000014 0 0)" font-size="11.999971" font-family="TeXGyreHerosMakieRegular"><tspan y="99.16392" x="561.9305">0</tspan></text>
<text xml:space="preserve" transform="matrix(1.0000005 0 0 .9999995 0 0)" font-size="11.999994" font-family="TeXGyreHerosMakieRegular"><tspan y="99.16411" x="568.6013 575.2733 581.94528">020</tspan></text>
<path stroke-width=".75" stroke-linecap="butt" stroke-miterlimit="2" stroke-linejoin="miter" fill="none" stroke="#000000" d="M50.25 401.625V406.125"/>
<path stroke-width=".75" stroke-linecap="butt" stroke-miterlimit="2" stroke-linejoin="miter" fill="none" stroke="#000000" d="M141.75 401.625V406.125"/>
<path stroke-width=".75" stroke-linecap="butt" stroke-miterlimit="2" stroke-linejoin="miter" fill="none" stroke="#000000" d="M233.25 401.625V406.125"/>
<path stroke-width=".75" stroke-linecap="butt" stroke-miterlimit="2" stroke-linejoin="miter" fill="none" stroke="#000000" d="M324.75 401.625V406.125"/>
<path stroke-width=".75" stroke-linecap="butt" stroke-miterlimit="2" stroke-linejoin="miter" fill="none" stroke="#000000" d="M416.25 401.625V406.125"/>
<path stroke-width=".75" stroke-linecap="butt" stroke-miterlimit="2" stroke-linejoin="miter" fill="none" stroke="#000000" d="M507.75 401.625V406.125"/>
<path stroke-width=".75" stroke-linecap="butt" stroke-miterlimit="2" stroke-linejoin="miter" fill="none" stroke="#000000" d="M49.875 383.535H45.375"/>
<path stroke-width=".75" stroke-linecap="butt" stroke-miterlimit="2" stroke-linejoin="miter" fill="none" stroke="#000000" d="M49.875 294.965H45.375"/>
<path stroke-width=".75" stroke-linecap="butt" stroke-miterlimit="2" stroke-linejoin="miter" fill="none" stroke="#000000" d="M49.875 206.395H45.375"/>
<path stroke-width=".75" stroke-linecap="butt" stroke-miterlimit="2" stroke-linejoin="miter" fill="none" stroke="#000000" d="M49.875 117.82H45.375"/>
<path stroke-width=".75" stroke-linecap="butt" stroke-miterlimit="2" stroke-linejoin="miter" fill="none" stroke="#000000" d="M49.875 29.25H45.375"/>
<path stroke-width=".75" stroke-linecap="butt" stroke-miterlimit="2" stroke-linejoin="miter" fill="none" stroke="#000000" d="M538.125 401.25H542.625"/>
<path stroke-width=".75" stroke-linecap="butt" stroke-miterlimit="2" stroke-linejoin="miter" fill="none" stroke="#000000" d="M538.125 324.637H542.625"/>
<path stroke-width=".75" stroke-linecap="butt" stroke-miterlimit="2" stroke-linejoin="miter" fill="none" stroke="#000000" d="M538.125 248.02H542.625"/>
<path stroke-width=".75" stroke-linecap="butt" stroke-miterlimit="2" stroke-linejoin="miter" fill="none" stroke="#000000" d="M538.125 171.406H542.625"/>
<path stroke-width=".75" stroke-linecap="butt" stroke-miterlimit="2" stroke-linejoin="miter" fill="none" stroke="#000000" d="M538.125 94.789H542.625"/>
<path stroke-width=".75" stroke-linecap="butt" stroke-miterlimit="2" stroke-linejoin="miter" fill="none" stroke="#000000" d="M49.875 401.25H508.125"/>
<path stroke-width=".75" stroke-linecap="butt" stroke-miterlimit="2" stroke-linejoin="miter" fill="none" stroke="#000000" d="M50.25 401.625V28.875"/>
<path stroke-width=".75" stroke-linecap="butt" stroke-miterlimit="2" stroke-linejoin="miter" fill="none" stroke="#000000" d="M49.875 29.25H508.125"/>
<path stroke-width=".75" stroke-linecap="butt" stroke-miterlimit="2" stroke-linejoin="miter" fill="none" stroke="#000000" d="M507.75 401.625V28.875"/>
</g>
</svg>
