<svg xmlns="http://www.w3.org/2000/svg" xmlns:xlink="http://www.w3.org/1999/xlink" version="1.1" width="600pt" height="450pt" viewBox="0 0 600 450">
<defs>
<clipPath id="clip_0">
<path d="M50.25 29.25H507.75V401.25H50.25Z"/>
</clipPath>
<clipPath id="clip_1">
<path d="M50.25 45H356V191H50.25Z"/>
</clipPath>
<clipPath id="clip_2">
<path d="M50.25 71H289V187H50.25Z"/>
</clipPath>
<clipPath id="clip_3">
<path d="M50.25 77H236V183H50.25Z"/>
</clipPath>
<clipPath id="clip_4">
<path d="M50.25 82H194V179H50.25Z"/>
</clipPath>
<clipPath id="clip_5">
<path d="M50.25 87H159V174H50.25Z"/>
</clipPath>
<clipPath id="clip_6">
<path d="M50.25 92H128V170H50.25Z"/>
</clipPath>
<clipPath id="clip_7">
<path d="M50.25 98H103V166H50.25Z"/>
</clipPath>
<clipPath id="clip_8">
<path d="M50.25 103H81V162H50.25Z"/>
</clipPath>
<clipPath id="clip_9">
<path d="M50.25 108H62V158H50.25Z"/>
</clipPath>
</defs>
<g>
<path d="M0 0H600V450H0Z" fill="#ffffff"/>
<path d="M50.25 29.25H507.75V401.25H50.25Z" fill="#ffffff"/>
<path stroke-width=".75" stroke-linecap="butt" stroke-miterlimit="2" stroke-linejoin="miter" fill="none" stroke="#000000" stroke-opacity=".12" d="M126.5 401.25V29.25"/>
<path stroke-width=".75" stroke-linecap="butt" stroke-miterlimit="2" stroke-linejoin="miter" fill="none" stroke="#000000" stroke-opacity=".12" d="M221.813 401.25V29.25"/>
<path stroke-width=".75" stroke-linecap="butt" stroke-miterlimit="2" stroke-linejoin="miter" fill="none" stroke="#000000" stroke-opacity=".12" d="M317.125 401.25V29.25"/>
<path stroke-width=".75" stroke-linecap="butt" stroke-miterlimit="2" stroke-linejoin="miter" fill="none" stroke="#000000" stroke-opacity=".12" d="M412.438 401.25V29.25"/>
<path stroke-width=".75" stroke-linecap="butt" stroke-miterlimit="2" stroke-linejoin="miter" fill="none" stroke="#000000" stroke-opacity=".12" d="M507.75 401.25V29.25"/>
<path stroke-width=".75" stroke-linecap="butt" stroke-miterlimit="2" stroke-linejoin="miter" fill="none" stroke="#000000" stroke-opacity=".12" d="M50.25 383.535H507.75"/>
<path stroke-width=".75" stroke-linecap="butt" stroke-miterlimit="2" stroke-linejoin="miter" fill="none" stroke="#000000" stroke-opacity=".12" d="M50.25 294.965H507.75"/>
<path stroke-width=".75" stroke-linecap="butt" stroke-miterlimit="2" stroke-linejoin="miter" fill="none" stroke="#000000" stroke-opacity=".12" d="M50.25 206.395H507.75"/>
<path stroke-width=".75" stroke-linecap="butt" stroke-miterlimit="2" stroke-linejoin="miter" fill="none" stroke="#000000" stroke-opacity=".12" d="M50.25 117.82H507.75"/>
<path stroke-width=".75" stroke-linecap="butt" stroke-miterlimit="2" stroke-linejoin="miter" fill="none" stroke="#000000" stroke-opacity=".12" d="M50.25 29.25H507.75"/>
<text xml:space="preserve" transform="matrix(1.000001 0 0 .99999907 0 0)" font-size="12.000011" font-family="TeXGyreHerosMakieRegular"><tspan y="435.59419" x="268.7146">&#x03c7;</tspan></text>
<text xml:space="preserve" transform="matrix(1.000001 0 0 .99999907 0 0)" font-size="12.000011" font-family="TeXGyreHerosMakieRegular"><tspan y="435.59419" x="276.46659">B</tspan></text>
<text xml:space="preserve" transform="matrix(1.000001 0 0 .99999907 0 0)" font-size="12.000011" font-family="DejaVuSans"><tspan y="435.59419" x="284.4706">&#x2080;</tspan></text>
<text xml:space="preserve" transform="matrix(.9999976 0 0 1.0000024 0 0)" font-size="12.000017" font-family="TeXGyreHerosMakieRegular"><tspan y="419.36228" x="118.16044">3</tspan></text>
<text xml:space="preserve" transform="matrix(.99999859 0 0 1.0000014 0 0)" font-size="12.000029" font-family="TeXGyreHerosMakieRegular"><tspan y="419.36268" x="124.83221">.</tspan></text>
<text xml:space="preserve" transform="matrix(.9999981 0 0 1.0000019 0 0)" font-size="12.000023" font-family="TeXGyreHerosMakieRegular"><tspan y="419.3625" x="128.16822 213.47638 220.14839 223.48439 308.78575 315.45777">13.23.</tspan></text>
<text xml:space="preserve" transform="matrix(.99999907 0 0 1.000001 0 0)" font-size="12.000034" font-family="TeXGyreHerosMakieRegular"><tspan y="419.36289" x="318.79328">3</tspan></text>
<text xml:space="preserve" transform="matrix(.9999981 0 0 1.0000019 0 0)" font-size="12.000023" font-family="TeXGyreHerosMakieRegular"><tspan y="419.3625" x="404.09843">3</tspan></text>
<text xml:space="preserve" transform="matrix(.9999962 0 0 1.0000038 0 0)" font-size="12" font-family="TeXGyreHerosMakieRegular"><tspan y="419.3617" x="410.7711">.</tspan></text>
<text xml:space="preserve" transform="matrix(1 0 0 1 0 0)" font-size="12.000046" font-family="TeXGyreHerosMakieRegular"><tspan y="419.36329" x="414.10548">4</tspan></text>
<text xml:space="preserve" transform="matrix(.9999981 0 0 1.0000019 0 0)" font-size="12.000023" font-family="TeXGyreHerosMakieRegular"><tspan y="419.3625" x="499.4111">3</tspan></text>
<text xml:space="preserve" transform="matrix(.9999962 0 0 1.0000038 0 0)" font-size="12" font-family="TeXGyreHerosMakieRegular"><tspan y="419.3617" x="506.08396">.</tspan></text>
<text xml:space="preserve" transform="matrix(1 0 0 1 0 0)" font-size="12.000046" font-family="TeXGyreHerosMakieRegular"><tspan y="419.36329" x="509.41798">5</tspan></text>
<text xml:space="preserve" transform="matrix(0 -.9999988 1.0000013 0 0 0)" font-size="11.999991" font-family="TeXGyreHerosMakieRegular"><tspan y="22.289034" x="-219.80886">&#x03a9;</tspan></text>
<text xml:space="preserve" transform="matrix(1.0000004 0 0 .9999996 0 0)" font-size="12.000005" font-family="TeXGyreHerosMakieRegular"><tspan y="387.91035" x="35.328115">0</tspan><tspan y="299.34" x="35.328115">5</tspan></text>
<text xml:space="preserve" transform="matrix(.99999859 0 0 1.0000014 0 0)" font-size="12.000006" font-family="TeXGyreHerosMakieRegular"><tspan y="210.76532" x="28.65629">1</tspan></text>
<text xml:space="preserve" transform="matrix(.99999937 0 0 1.0000006 0 0)" font-size="12.000016" font-family="TeXGyreHerosMakieRegular"><tspan y="210.76552" x="35.32815">0</tspan></text>
<text xml:space="preserve" transform="matrix(1 0 0 1 0 0)" font-size="11.999989" font-family="TeXGyreHerosMakieRegular"><tspan y="122.19531" x="28.65625">1</tspan></text>
<text xml:space="preserve" transform="matrix(1.0000008 0 0 .9999991 0 0)" font-size="11.999999" font-family="TeXGyreHerosMakieRegular"><tspan y="122.19543" x="35.3281">5</tspan></text>
<text xml:space="preserve" transform="matrix(.999999 0 0 1.0000011 0 0)" font-size="12.000001" font-family="TeXGyreHerosMakieRegular"><tspan y="33.624967" x="28.65628">2</tspan></text>
<text xml:space="preserve" transform="matrix(.99999979 0 0 1.0000002 0 0)" font-size="12.000011" font-family="TeXGyreHerosMakieRegular"><tspan y="33.624994" x="35.328134">0</tspan></text>
<text xml:space="preserve" transform="matrix(1.0000013 0 0 .9999986 0 0)" font-size="12.000007" font-family="TeXGyreHerosMakieBold" font-weight="bold"><tspan y="23.632847" x="241.99188">C</tspan></text>
<text xml:space="preserve" transform="matrix(1.0000004 0 0 .9999996 0 0)" font-size="11.999995" font-family="TeXGyreHerosMakieBold" font-weight="bold"><tspan y="23.632824" x="250.65618">o</tspan></text>
<text xml:space="preserve" transform="matrix(.99999949 0 0 1.0000006 0 0)" font-size="11.999984" font-family="TeXGyreHerosMakieBold" font-weight="bold"><tspan y="23.6328" x="257.98844">n</tspan></text>
<text xml:space="preserve" transform="matrix(1.0000004 0 0 .9999996 0 0)" font-size="11.999995" font-family="TeXGyreHerosMakieBold" font-weight="bold"><tspan y="23.632824" x="265.32023 271.99223 279.32423 283.99223 288.66023">curre</tspan></text>
<text xml:space="preserve" transform="matrix(.99999949 0 0 1.0000006 0 0)" font-size="11.999984" font-family="TeXGyreHerosMakieBold" font-weight="bold"><tspan y="23.6328" x="295.3322">n</tspan></text>
<text xml:space="preserve" transform="matrix(1.0000004 0 0 .9999996 0 0)" font-size="11.999995" font-family="TeXGyreHerosMakieBold" font-weight="bold"><tspan y="23.632824" x="302.66398">c</tspan></text>
<text xml:space="preserve" transform="matrix(1.0000013 0 0 .9999986 0 0)" font-size="12.000007" font-family="TeXGyreHerosMakieBold" font-weight="bold"><tspan y="23.632847" x="309.33555">e</tspan></text>
<g clip-path="url(#clip_0)">
<path d="M507.75 29.25H50.25V45.922L91.84 60.188 118.246 70.582 133.434 71.754 175.023 75.035 216.613 79.145 258.203 84.664 299.797 92.711 341.387 105.785 355.047 111.918 341.387 118.051 299.797 130.223 258.203 136.895 216.613 141.105 175.023 143.992 133.434 146.094 102.652 153.25 91.84 163.996 50.25 190.449V401.25H507.75ZM507.75 29.25" fill="#440154"/>
</g>
<g clip-path="url(#clip_1)">
<path d="M50.25 45.922V71.727L91.84 75.648 133.434 80.168 175.023 85.68 216.613 92.781 258.203 102.504 288.148 111.918 258.203 120.543 216.613 128.957 175.023 134.734 133.434 138.934 91.84 148.836 88.723 153.25 50.25 186.316V190.449L91.84 163.996 102.652 153.25 133.434 146.094 175.023 143.992 216.613 141.105 258.203 136.895 299.797 130.223 341.387 118.051 355.047 111.918 341.387 105.785 299.797 92.711 258.203 84.664 216.613 79.145 175.023 75.035 133.434 71.754 118.246 70.582 91.84 60.188ZM50.25 45.922" fill="#482878"/>
</g>
<g clip-path="url(#clip_2)">
<path d="M258.203 102.504 216.613 92.781 175.023 85.68 133.434 80.168 91.84 75.648 50.25 71.727V77.043L91.84 82.332 133.434 88.578 175.023 96.328 216.613 106.418 235.762 111.918 216.613 116.813 175.023 125.477 133.434 131.777 91.84 142.031 83.914 153.25 50.25 182.184V186.316L88.723 153.25 91.84 148.836 133.434 138.934 175.023 134.734 216.613 128.957 258.203 120.543 288.148 111.918ZM258.203 102.504" fill="#3e4a89"/>
</g>
<g clip-path="url(#clip_3)">
<path d="M216.613 106.418 175.023 96.328 133.434 88.578 91.84 82.332 50.25 77.043V82.359L91.84 89.02 133.434 96.988 175.023 106.973 193.227 111.918 175.023 116.219 133.434 124.617 91.84 135.227 79.105 153.25 50.25 178.051V182.184L83.914 153.25 91.84 142.031 133.434 131.777 175.023 125.477 216.613 116.813 235.762 111.918ZM216.613 106.418" fill="#31688e"/>
</g>
<g clip-path="url(#clip_4)">
<path d="M175.023 106.973 133.434 96.988 91.84 89.02 50.25 82.359V87.672L91.84 95.703 133.434 105.402 158.023 111.918 133.434 117.461 91.84 128.422 74.293 153.25 50.25 173.918V178.051L79.105 153.25 91.84 135.227 133.434 124.617 175.023 116.219 193.227 111.918ZM175.023 106.973" fill="#26838e"/>
</g>
<g clip-path="url(#clip_5)">
<path d="M133.434 105.402 91.84 95.703 50.25 87.672V92.988L91.84 102.387 127.75 111.918 91.84 121.617 69.484 153.25 50.25 169.785V173.918L74.293 153.25 91.84 128.422 133.434 117.461 158.023 111.918ZM133.434 105.402" fill="#1f9d89"/>
</g>
<g clip-path="url(#clip_6)">
<path d="M91.84 102.387 50.25 92.988V98.305L91.84 109.07 102.559 111.918 91.84 114.813 64.676 153.25 50.25 165.648V169.785L69.484 153.25 91.84 121.617 127.75 111.918ZM91.84 102.387" fill="#35b779"/>
</g>
<g clip-path="url(#clip_7)">
<path d="M91.84 109.07 50.25 98.305V103.621L80.648 111.918 59.867 153.25 50.25 161.516V165.648L64.676 153.25 91.84 114.813 102.559 111.918ZM91.84 109.07" fill="#6cce59"/>
</g>
<g clip-path="url(#clip_8)">
<path d="M61.172 111.918 55.059 153.25 50.25 157.383V161.516L59.867 153.25 80.648 111.918 50.25 103.621V108.938ZM61.172 111.918" fill="#b4dd2c"/>
</g>
<g clip-path="url(#clip_9)">
<path d="M61.172 111.918 50.25 108.938V157.383L55.059 153.25ZM61.172 111.918" fill="#fde725"/>
</g>
<path d="M525.75 364.051H537.75V401.25H525.75Z" fill="#440154"/>
<path d="M525.75 326.852H537.75V364.051H525.75Z" fill="#482878"/>
<path d="M525.75 289.652H537.75V326.851H525.75Z" fill="#3e4a89"/>
<path d="M525.75 252.449H537.75V289.648H525.75Z" fill="#31688e"/>
<path d="M525.75 215.25H537.75V252.449H525.75Z" fill="#26838e"/>
<path d="M525.75 178.051H537.75V215.25H525.75Z" fill="#1f9d89"/>
<path d="M525.75 140.852H537.75V178.05101H525.75Z" fill="#35b779"/>
<path d="M525.75 103.652H537.75V140.851H525.75Z" fill="#6cce59"/>
<path d="M525.75 66.449H537.75V103.647998H525.75Z" fill="#b4dd2c"/>
<path d="M525.75 29.25H537.75V66.449008H525.75Z" fill="#fde725"/>
<path stroke-width=".75" stroke-linecap="butt" stroke-miterlimit="2" stroke-linejoin="miter" fill="none" stroke="#000000" d="M525.75 29.25H537.75V401.25H525.75Z"/>
<text xml:space="preserve" transform="matrix(1 0 0 1 0 0)" font-size="12" font-family="TeXGyreHerosMakieRegular"><tspan y="405.625" x="545.25 551.922 555.258">0.0</tspan></text>
<text xml:space="preserve" transform="matrix(.9999981 0 0 1.0000019 0 0)" font-size="11.999977" font-family="TeXGyreHerosMakieRegular"><tspan y="405.62425" x="561.9308">0</tspan></text>
<text xml:space="preserve" transform="matrix(1 0 0 1 0 0)" font-size="12" font-family="TeXGyreHerosMakieRegular"><tspan y="405.625" x="568.60159 575.27359 581.94558">000</tspan><tspan y="293.3711" x="545.25 551.922 555.258">0.0</tspan></text>
<text xml:space="preserve" transform="matrix(.9999981 0 0 1.0000019 0 0)" font-size="11.999977" font-family="TeXGyreHerosMakieRegular"><tspan y="293.37055" x="561.9308">0</tspan></text>
<text xml:space="preserve" transform="matrix(1 0 0 1 0 0)" font-size="12" font-family="TeXGyreHerosMakieRegular"><tspan y="293.3711" x="568.60159 575.27359 581.94558">005</tspan><tspan y="181.11719" x="545.25 551.922 555.258">0.0</tspan></text>
<text xml:space="preserve" transform="matrix(.9999981 0 0 1.0000019 0 0)" font-size="11.999977" font-family="TeXGyreHerosMakieRegular"><tspan y="181.11684" x="561.9308">0</tspan></text>
<text xml:space="preserve" transform="matrix(1 0 0 1 0 0)" font-size="12" font-family="TeXGyreHerosMakieRegular"><tspan y="181.11719" x="568.60159 575.27359 581.94558">010</tspan></text>
<text xml:space="preserve" transform="matrix(.9999993 0 0 1.0000007 0 0)" font-size="12.000009" font-family="TeXGyreHerosMakieRegular"><tspan y="68.863239" x="545.25039 551.92239 555.2584">0.0</tspan></text>
<text xml:space="preserve" transform="matrix(.9999974 0 0 1.0000026 0 0)" font-size="11.999986" font-family="TeXGyreHerosMakieRegular"><tspan y="68.8631" x="561.93118">0</tspan></text>
<text xml:space="preserve" transform="matrix(.9999993 0 0 1.0000007 0 0)" font-size="12.000009" font-family="TeXGyreHerosMakieRegular"><tspan y="68.863239" x="568.602 575.274 581.946">015</tspan></text>
<path stroke-width=".75" stroke-linecap="butt" stroke-miterlimit="2" stroke-linejoin="miter" fill="none" stroke="#000000" d="M126.5 401.625V406.125"/>
<path stroke-width=".75" stroke-linecap="butt" stroke-miterlimit="2" stroke-linejoin="miter" fill="none" stroke="#000000" d="M221.813 401.625V406.125"/>
<path stroke-width=".75" stroke-linecap="butt" stroke-miterlimit="2" stroke-linejoin="miter" fill="none" stroke="#000000" d="M317.125 401.625V406.125"/>
<path stroke-width=".75" stroke-linecap="butt" stroke-miterlimit="2" stroke-linejoin="miter" fill="none" stroke="#000000" d="M412.438 401.625V406.125"/>
<path stroke-width=".75" stroke-linecap="butt" stroke-miterlimit="2" stroke-linejoin="miter" fill="none" stroke="#000000" d="M507.75 401.625V406.125"/>
<path stroke-width=".75" stroke-linecap="butt" stroke-miterlimit="2" stroke-linejoin="miter" fill="none" stroke="#000000" d="M49.875 383.535H45.375"/>
<path stroke-width=".75" stroke-linecap="butt" stroke-miterlimit="2" stroke-linejoin="miter" fill="none" stroke="#000000" d="M49.875 294.965H45.375"/>
<path stroke-width=".75" stroke-linecap="butt" stroke-miterlimit="2" stroke-linejoin="miter" fill="none" stroke="#000000" d="M49.875 206.395H45.375"/>
<path stroke-width=".75" stroke-linecap="butt" stroke-miterlimit="2" stroke-linejoin="miter" fill="none" stroke="#000000" d="M49.875 117.82H45.375"/>
<path stroke-width=".75" stroke-linecap="butt" stroke-miterlimit="2" stroke-linejoin="miter" fill="none" stroke="#000000" d="M49.875 29.25H45.375"/>
<path stroke-width=".75" stroke-linecap="butt" stroke-miterlimit="2" stroke-linejoin="miter" fill="none" stroke="#000000" d="M538.125 401.25H542.625"/>
<path stroke-width=".75" stroke-linecap="butt" stroke-miterlimit="2" stroke-linejoin="miter" fill="none" stroke="#000000" d="M538.125 288.996H542.625"/>
<path stroke-width=".75" stroke-linecap="butt" stroke-miterlimit="2" stroke-linejoin="miter" fill="none" stroke="#000000" d="M538.125 176.742H542.625"/>
<path stroke-width=".75" stroke-linecap="butt" stroke-miterlimit="2" stroke-linejoin="miter" fill="none" stroke="#000000" d="M538.125 64.488H542.625"/>
<path stroke-width=".75" stroke-linecap="butt" stroke-miterlimit="2" stroke-linejoin="miter" fill="none" stroke="#000000" d="M49.875 401.25H508.125"/>
<path stroke-width=".75" stroke-linecap="butt" stroke-miterlimit="2" stroke-linejoin="miter" fill="none" stroke="#000000" d="M50.25 401.625V28.875"/>
<path stroke-width=".75" stroke-linecap="butt" stroke-miterlimit="2" stroke-linejoin="miter" fill="none" stroke="#000000" d="M49.875 29.25H508.125"/>
<path stroke-width=".75" stroke-linecap="butt" stroke-miterlimit="2" stroke-linejoin="miter" fill="none" stroke="#000000" d="M507.75 401.625V28.875"/>
</g>
</svg>
