<svg xmlns="http://www.w3.org/2000/svg" xmlns:xlink="http://www.w3.org/1999/xlink" width="600" height="400" viewBox="0 0 2400 1600">
<defs>
  <clipPath id="clip230">
    <rect x="0" y="0" width="2400" height="1600"></rect>
  </clipPath>
</defs>
<path clip-path="url(#clip230)" d="
M0 1600 L2400 1600 L2400 0 L0 0  Z
  " fill="#ffffff" fill-rule="evenodd" fill-opacity="1"></path>
<defs>
  <clipPath id="clip231">
    <rect x="480" y="0" width="1681" height="1600"></rect>
  </clipPath>
</defs>
<path clip-path="url(#clip230)" d="
M216.922 1486.45 L2352.76 1486.45 L2352.76 47.2441 L216.922 47.2441  Z
  " fill="#ffffff" fill-rule="evenodd" fill-opacity="1"></path>
<defs>
  <clipPath id="clip232">
    <rect x="216" y="47" width="2137" height="1440"></rect>
  </clipPath>
</defs>
<polyline clip-path="url(#clip232)" style="stroke:#000000; stroke-linecap:butt; stroke-linejoin:round; stroke-width:2; stroke-opacity:0.1; fill:none" points="
  277.37,1486.45 277.37,47.2441 
  "></polyline>
<polyline clip-path="url(#clip232)" style="stroke:#000000; stroke-linecap:butt; stroke-linejoin:round; stroke-width:2; stroke-opacity:0.1; fill:none" points="
  680.358,1486.45 680.358,47.2441 
  "></polyline>
<polyline clip-path="url(#clip232)" style="stroke:#000000; stroke-linecap:butt; stroke-linejoin:round; stroke-width:2; stroke-opacity:0.1; fill:none" points="
  1083.35,1486.45 1083.35,47.2441 
  "></polyline>
<polyline clip-path="url(#clip232)" style="stroke:#000000; stroke-linecap:butt; stroke-linejoin:round; stroke-width:2; stroke-opacity:0.1; fill:none" points="
  1486.33,1486.45 1486.33,47.2441 
  "></polyline>
<polyline clip-path="url(#clip232)" style="stroke:#000000; stroke-linecap:butt; stroke-linejoin:round; stroke-width:2; stroke-opacity:0.1; fill:none" points="
  1889.32,1486.45 1889.32,47.2441 
  "></polyline>
<polyline clip-path="url(#clip232)" style="stroke:#000000; stroke-linecap:butt; stroke-linejoin:round; stroke-width:2; stroke-opacity:0.1; fill:none" points="
  2292.31,1486.45 2292.31,47.2441 
  "></polyline>
<polyline clip-path="url(#clip230)" style="stroke:#000000; stroke-linecap:butt; stroke-linejoin:round; stroke-width:4; stroke-opacity:1; fill:none" points="
  216.922,1486.45 2352.76,1486.45 
  "></polyline>
<polyline clip-path="url(#clip230)" style="stroke:#000000; stroke-linecap:butt; stroke-linejoin:round; stroke-width:4; stroke-opacity:1; fill:none" points="
  277.37,1486.45 277.37,1467.55 
  "></polyline>
<polyline clip-path="url(#clip230)" style="stroke:#000000; stroke-linecap:butt; stroke-linejoin:round; stroke-width:4; stroke-opacity:1; fill:none" points="
  680.358,1486.45 680.358,1467.55 
  "></polyline>
<polyline clip-path="url(#clip230)" style="stroke:#000000; stroke-linecap:butt; stroke-linejoin:round; stroke-width:4; stroke-opacity:1; fill:none" points="
  1083.35,1486.45 1083.35,1467.55 
  "></polyline>
<polyline clip-path="url(#clip230)" style="stroke:#000000; stroke-linecap:butt; stroke-linejoin:round; stroke-width:4; stroke-opacity:1; fill:none" points="
  1486.33,1486.45 1486.33,1467.55 
  "></polyline>
<polyline clip-path="url(#clip230)" style="stroke:#000000; stroke-linecap:butt; stroke-linejoin:round; stroke-width:4; stroke-opacity:1; fill:none" points="
  1889.32,1486.45 1889.32,1467.55 
  "></polyline>
<polyline clip-path="url(#clip230)" style="stroke:#000000; stroke-linecap:butt; stroke-linejoin:round; stroke-width:4; stroke-opacity:1; fill:none" points="
  2292.31,1486.45 2292.31,1467.55 
  "></polyline>
<path clip-path="url(#clip230)" d="M277.37 1517.37 Q273.759 1517.37 271.93 1520.93 Q270.125 1524.47 270.125 1531.6 Q270.125 1538.71 271.93 1542.27 Q273.759 1545.82 277.37 1545.82 Q281.004 1545.82 282.81 1542.27 Q284.639 1538.71 284.639 1531.6 Q284.639 1524.47 282.81 1520.93 Q281.004 1517.37 277.37 1517.37 M277.37 1513.66 Q283.18 1513.66 286.236 1518.27 Q289.314 1522.85 289.314 1531.6 Q289.314 1540.33 286.236 1544.94 Q283.18 1549.52 277.37 1549.52 Q271.56 1549.52 268.481 1544.94 Q265.426 1540.33 265.426 1531.6 Q265.426 1522.85 268.481 1518.27 Q271.56 1513.66 277.37 1513.66 Z" fill="#000000" fill-rule="evenodd" fill-opacity="1"></path><path clip-path="url(#clip230)" d="M670.74 1544.91 L678.378 1544.91 L678.378 1518.55 L670.068 1520.21 L670.068 1515.95 L678.332 1514.29 L683.008 1514.29 L683.008 1544.91 L690.647 1544.91 L690.647 1548.85 L670.74 1548.85 L670.74 1544.91 Z" fill="#000000" fill-rule="evenodd" fill-opacity="1"></path><path clip-path="url(#clip230)" d="M1078 1544.91 L1094.32 1544.91 L1094.32 1548.85 L1072.37 1548.85 L1072.37 1544.91 Q1075.04 1542.16 1079.62 1537.53 Q1084.22 1532.88 1085.41 1531.53 Q1087.65 1529.01 1088.53 1527.27 Q1089.43 1525.51 1089.43 1523.82 Q1089.43 1521.07 1087.49 1519.33 Q1085.57 1517.6 1082.47 1517.6 Q1080.27 1517.6 1077.81 1518.36 Q1075.38 1519.13 1072.6 1520.68 L1072.6 1515.95 Q1075.43 1514.82 1077.88 1514.24 Q1080.34 1513.66 1082.37 1513.66 Q1087.74 1513.66 1090.94 1516.35 Q1094.13 1519.03 1094.13 1523.52 Q1094.13 1525.65 1093.32 1527.57 Q1092.53 1529.47 1090.43 1532.07 Q1089.85 1532.74 1086.75 1535.95 Q1083.65 1539.15 1078 1544.91 Z" fill="#000000" fill-rule="evenodd" fill-opacity="1"></path><path clip-path="url(#clip230)" d="M1490.58 1530.21 Q1493.94 1530.93 1495.81 1533.2 Q1497.71 1535.47 1497.71 1538.8 Q1497.71 1543.92 1494.19 1546.72 Q1490.67 1549.52 1484.19 1549.52 Q1482.02 1549.52 1479.7 1549.08 Q1477.41 1548.66 1474.96 1547.81 L1474.96 1543.29 Q1476.9 1544.43 1479.21 1545.01 Q1481.53 1545.58 1484.05 1545.58 Q1488.45 1545.58 1490.74 1543.85 Q1493.06 1542.11 1493.06 1538.8 Q1493.06 1535.75 1490.9 1534.03 Q1488.77 1532.3 1484.96 1532.3 L1480.93 1532.3 L1480.93 1528.45 L1485.14 1528.45 Q1488.59 1528.45 1490.42 1527.09 Q1492.25 1525.7 1492.25 1523.11 Q1492.25 1520.45 1490.35 1519.03 Q1488.47 1517.6 1484.96 1517.6 Q1483.03 1517.6 1480.84 1518.01 Q1478.64 1518.43 1476 1519.31 L1476 1515.14 Q1478.66 1514.4 1480.97 1514.03 Q1483.31 1513.66 1485.37 1513.66 Q1490.7 1513.66 1493.8 1516.09 Q1496.9 1518.5 1496.9 1522.62 Q1496.9 1525.49 1495.26 1527.48 Q1493.61 1529.45 1490.58 1530.21 Z" fill="#000000" fill-rule="evenodd" fill-opacity="1"></path><path clip-path="url(#clip230)" d="M1892.33 1518.36 L1880.52 1536.81 L1892.33 1536.81 L1892.33 1518.36 M1891.1 1514.29 L1896.98 1514.29 L1896.98 1536.81 L1901.91 1536.81 L1901.91 1540.7 L1896.98 1540.7 L1896.98 1548.85 L1892.33 1548.85 L1892.33 1540.7 L1876.73 1540.7 L1876.73 1536.19 L1891.1 1514.29 Z" fill="#000000" fill-rule="evenodd" fill-opacity="1"></path><path clip-path="url(#clip230)" d="M2282.59 1514.29 L2300.94 1514.29 L2300.94 1518.22 L2286.87 1518.22 L2286.87 1526.7 Q2287.89 1526.35 2288.91 1526.19 Q2289.92 1526 2290.94 1526 Q2296.73 1526 2300.11 1529.17 Q2303.49 1532.34 2303.49 1537.76 Q2303.49 1543.34 2300.02 1546.44 Q2296.54 1549.52 2290.22 1549.52 Q2288.05 1549.52 2285.78 1549.15 Q2283.53 1548.78 2281.13 1548.04 L2281.13 1543.34 Q2283.21 1544.47 2285.43 1545.03 Q2287.66 1545.58 2290.13 1545.58 Q2294.14 1545.58 2296.47 1543.48 Q2298.81 1541.37 2298.81 1537.76 Q2298.81 1534.15 2296.47 1532.04 Q2294.14 1529.94 2290.13 1529.94 Q2288.26 1529.94 2286.38 1530.35 Q2284.53 1530.77 2282.59 1531.65 L2282.59 1514.29 Z" fill="#000000" fill-rule="evenodd" fill-opacity="1"></path><polyline clip-path="url(#clip232)" style="stroke:#000000; stroke-linecap:butt; stroke-linejoin:round; stroke-width:2; stroke-opacity:0.1; fill:none" points="
  216.922,1445.72 2352.76,1445.72 
  "></polyline>
<polyline clip-path="url(#clip232)" style="stroke:#000000; stroke-linecap:butt; stroke-linejoin:round; stroke-width:2; stroke-opacity:0.1; fill:none" points="
  216.922,1063.32 2352.76,1063.32 
  "></polyline>
<polyline clip-path="url(#clip232)" style="stroke:#000000; stroke-linecap:butt; stroke-linejoin:round; stroke-width:2; stroke-opacity:0.1; fill:none" points="
  216.922,680.92 2352.76,680.92 
  "></polyline>
<polyline clip-path="url(#clip232)" style="stroke:#000000; stroke-linecap:butt; stroke-linejoin:round; stroke-width:2; stroke-opacity:0.1; fill:none" points="
  216.922,298.522 2352.76,298.522 
  "></polyline>
<polyline clip-path="url(#clip230)" style="stroke:#000000; stroke-linecap:butt; stroke-linejoin:round; stroke-width:4; stroke-opacity:1; fill:none" points="
  216.922,1486.45 216.922,47.2441 
  "></polyline>
<polyline clip-path="url(#clip230)" style="stroke:#000000; stroke-linecap:butt; stroke-linejoin:round; stroke-width:4; stroke-opacity:1; fill:none" points="
  216.922,1445.72 235.82,1445.72 
  "></polyline>
<polyline clip-path="url(#clip230)" style="stroke:#000000; stroke-linecap:butt; stroke-linejoin:round; stroke-width:4; stroke-opacity:1; fill:none" points="
  216.922,1063.32 235.82,1063.32 
  "></polyline>
<polyline clip-path="url(#clip230)" style="stroke:#000000; stroke-linecap:butt; stroke-linejoin:round; stroke-width:4; stroke-opacity:1; fill:none" points="
  216.922,680.92 235.82,680.92 
  "></polyline>
<polyline clip-path="url(#clip230)" style="stroke:#000000; stroke-linecap:butt; stroke-linejoin:round; stroke-width:4; stroke-opacity:1; fill:none" points="
  216.922,298.522 235.82,298.522 
  "></polyline>
<path clip-path="url(#clip230)" d="M63.4226 1431.51 Q59.8115 1431.51 57.9828 1435.08 Q56.1773 1438.62 56.1773 1445.75 Q56.1773 1452.86 57.9828 1456.42 Q59.8115 1459.96 63.4226 1459.96 Q67.0569 1459.96 68.8624 1456.42 Q70.6911 1452.86 70.6911 1445.75 Q70.6911 1438.62 68.8624 1435.08 Q67.0569 1431.51 63.4226 1431.51 M63.4226 1427.81 Q69.2328 1427.81 72.2883 1432.42 Q75.367 1437 75.367 1445.75 Q75.367 1454.48 72.2883 1459.08 Q69.2328 1463.67 63.4226 1463.67 Q57.6125 1463.67 54.5338 1459.08 Q51.4782 1454.48 51.4782 1445.75 Q51.4782 1437 54.5338 1432.42 Q57.6125 1427.81 63.4226 1427.81 Z" fill="#000000" fill-rule="evenodd" fill-opacity="1"></path><path clip-path="url(#clip230)" d="M83.5845 1457.12 L88.4688 1457.12 L88.4688 1463 L83.5845 1463 L83.5845 1457.12 Z" fill="#000000" fill-rule="evenodd" fill-opacity="1"></path><path clip-path="url(#clip230)" d="M108.654 1431.51 Q105.043 1431.51 103.214 1435.08 Q101.409 1438.62 101.409 1445.75 Q101.409 1452.86 103.214 1456.42 Q105.043 1459.96 108.654 1459.96 Q112.288 1459.96 114.094 1456.42 Q115.922 1452.86 115.922 1445.75 Q115.922 1438.62 114.094 1435.08 Q112.288 1431.51 108.654 1431.51 M108.654 1427.81 Q114.464 1427.81 117.52 1432.42 Q120.598 1437 120.598 1445.75 Q120.598 1454.48 117.52 1459.08 Q114.464 1463.67 108.654 1463.67 Q102.844 1463.67 99.765 1459.08 Q96.7095 1454.48 96.7095 1445.75 Q96.7095 1437 99.765 1432.42 Q102.844 1427.81 108.654 1427.81 Z" fill="#000000" fill-rule="evenodd" fill-opacity="1"></path><path clip-path="url(#clip230)" d="M138.816 1431.51 Q135.205 1431.51 133.376 1435.08 Q131.57 1438.62 131.57 1445.75 Q131.57 1452.86 133.376 1456.42 Q135.205 1459.96 138.816 1459.96 Q142.45 1459.96 144.256 1456.42 Q146.084 1452.86 146.084 1445.75 Q146.084 1438.62 144.256 1435.08 Q142.45 1431.51 138.816 1431.51 M138.816 1427.81 Q144.626 1427.81 147.681 1432.42 Q150.76 1437 150.76 1445.75 Q150.76 1454.48 147.681 1459.08 Q144.626 1463.67 138.816 1463.67 Q133.006 1463.67 129.927 1459.08 Q126.871 1454.48 126.871 1445.75 Q126.871 1437 129.927 1432.42 Q133.006 1427.81 138.816 1427.81 Z" fill="#000000" fill-rule="evenodd" fill-opacity="1"></path><path clip-path="url(#clip230)" d="M168.978 1431.51 Q165.367 1431.51 163.538 1435.08 Q161.732 1438.62 161.732 1445.75 Q161.732 1452.86 163.538 1456.42 Q165.367 1459.96 168.978 1459.96 Q172.612 1459.96 174.417 1456.42 Q176.246 1452.86 176.246 1445.75 Q176.246 1438.62 174.417 1435.08 Q172.612 1431.51 168.978 1431.51 M168.978 1427.81 Q174.788 1427.81 177.843 1432.42 Q180.922 1437 180.922 1445.75 Q180.922 1454.48 177.843 1459.08 Q174.788 1463.67 168.978 1463.67 Q163.167 1463.67 160.089 1459.08 Q157.033 1454.48 157.033 1445.75 Q157.033 1437 160.089 1432.42 Q163.167 1427.81 168.978 1427.81 Z" fill="#000000" fill-rule="evenodd" fill-opacity="1"></path><path clip-path="url(#clip230)" d="M65.0198 1049.12 Q61.4087 1049.12 59.58 1052.68 Q57.7745 1056.22 57.7745 1063.35 Q57.7745 1070.46 59.58 1074.02 Q61.4087 1077.57 65.0198 1077.57 Q68.6541 1077.57 70.4596 1074.02 Q72.2883 1070.46 72.2883 1063.35 Q72.2883 1056.22 70.4596 1052.68 Q68.6541 1049.12 65.0198 1049.12 M65.0198 1045.41 Q70.83 1045.41 73.8855 1050.02 Q76.9642 1054.6 76.9642 1063.35 Q76.9642 1072.08 73.8855 1076.69 Q70.83 1081.27 65.0198 1081.27 Q59.2097 1081.27 56.131 1076.69 Q53.0754 1072.08 53.0754 1063.35 Q53.0754 1054.6 56.131 1050.02 Q59.2097 1045.41 65.0198 1045.41 Z" fill="#000000" fill-rule="evenodd" fill-opacity="1"></path><path clip-path="url(#clip230)" d="M85.1818 1074.72 L90.066 1074.72 L90.066 1080.6 L85.1818 1080.6 L85.1818 1074.72 Z" fill="#000000" fill-rule="evenodd" fill-opacity="1"></path><path clip-path="url(#clip230)" d="M110.251 1049.12 Q106.64 1049.12 104.811 1052.68 Q103.006 1056.22 103.006 1063.35 Q103.006 1070.46 104.811 1074.02 Q106.64 1077.57 110.251 1077.57 Q113.885 1077.57 115.691 1074.02 Q117.52 1070.46 117.52 1063.35 Q117.52 1056.22 115.691 1052.68 Q113.885 1049.12 110.251 1049.12 M110.251 1045.41 Q116.061 1045.41 119.117 1050.02 Q122.195 1054.6 122.195 1063.35 Q122.195 1072.08 119.117 1076.69 Q116.061 1081.27 110.251 1081.27 Q104.441 1081.27 101.362 1076.69 Q98.3067 1072.08 98.3067 1063.35 Q98.3067 1054.6 101.362 1050.02 Q104.441 1045.41 110.251 1045.41 Z" fill="#000000" fill-rule="evenodd" fill-opacity="1"></path><path clip-path="url(#clip230)" d="M140.413 1049.12 Q136.802 1049.12 134.973 1052.68 Q133.168 1056.22 133.168 1063.35 Q133.168 1070.46 134.973 1074.02 Q136.802 1077.57 140.413 1077.57 Q144.047 1077.57 145.853 1074.02 Q147.681 1070.46 147.681 1063.35 Q147.681 1056.22 145.853 1052.68 Q144.047 1049.12 140.413 1049.12 M140.413 1045.41 Q146.223 1045.41 149.279 1050.02 Q152.357 1054.6 152.357 1063.35 Q152.357 1072.08 149.279 1076.69 Q146.223 1081.27 140.413 1081.27 Q134.603 1081.27 131.524 1076.69 Q128.469 1072.08 128.469 1063.35 Q128.469 1054.6 131.524 1050.02 Q134.603 1045.41 140.413 1045.41 Z" fill="#000000" fill-rule="evenodd" fill-opacity="1"></path><path clip-path="url(#clip230)" d="M164.603 1076.66 L180.922 1076.66 L180.922 1080.6 L158.978 1080.6 L158.978 1076.66 Q161.64 1073.91 166.223 1069.28 Q170.829 1064.63 172.01 1063.28 Q174.255 1060.76 175.135 1059.02 Q176.038 1057.26 176.038 1055.57 Q176.038 1052.82 174.093 1051.08 Q172.172 1049.35 169.07 1049.35 Q166.871 1049.35 164.417 1050.11 Q161.987 1050.88 159.209 1052.43 L159.209 1047.7 Q162.033 1046.57 164.487 1045.99 Q166.941 1045.41 168.978 1045.41 Q174.348 1045.41 177.542 1048.1 Q180.737 1050.78 180.737 1055.27 Q180.737 1057.4 179.927 1059.32 Q179.14 1061.22 177.033 1063.82 Q176.454 1064.49 173.353 1067.7 Q170.251 1070.9 164.603 1076.66 Z" fill="#000000" fill-rule="evenodd" fill-opacity="1"></path><path clip-path="url(#clip230)" d="M62.9365 666.718 Q59.3254 666.718 57.4967 670.283 Q55.6912 673.825 55.6912 680.954 Q55.6912 688.061 57.4967 691.626 Q59.3254 695.167 62.9365 695.167 Q66.5707 695.167 68.3763 691.626 Q70.205 688.061 70.205 680.954 Q70.205 673.825 68.3763 670.283 Q66.5707 666.718 62.9365 666.718 M62.9365 663.015 Q68.7467 663.015 71.8022 667.621 Q74.8809 672.204 74.8809 680.954 Q74.8809 689.681 71.8022 694.288 Q68.7467 698.871 62.9365 698.871 Q57.1264 698.871 54.0477 694.288 Q50.9921 689.681 50.9921 680.954 Q50.9921 672.204 54.0477 667.621 Q57.1264 663.015 62.9365 663.015 Z" fill="#000000" fill-rule="evenodd" fill-opacity="1"></path><path clip-path="url(#clip230)" d="M83.0984 692.32 L87.9827 692.32 L87.9827 698.2 L83.0984 698.2 L83.0984 692.32 Z" fill="#000000" fill-rule="evenodd" fill-opacity="1"></path><path clip-path="url(#clip230)" d="M108.168 666.718 Q104.557 666.718 102.728 670.283 Q100.922 673.825 100.922 680.954 Q100.922 688.061 102.728 691.626 Q104.557 695.167 108.168 695.167 Q111.802 695.167 113.608 691.626 Q115.436 688.061 115.436 680.954 Q115.436 673.825 113.608 670.283 Q111.802 666.718 108.168 666.718 M108.168 663.015 Q113.978 663.015 117.033 667.621 Q120.112 672.204 120.112 680.954 Q120.112 689.681 117.033 694.288 Q113.978 698.871 108.168 698.871 Q102.358 698.871 99.2789 694.288 Q96.2234 689.681 96.2234 680.954 Q96.2234 672.204 99.2789 667.621 Q102.358 663.015 108.168 663.015 Z" fill="#000000" fill-rule="evenodd" fill-opacity="1"></path><path clip-path="url(#clip230)" d="M138.33 666.718 Q134.719 666.718 132.89 670.283 Q131.084 673.825 131.084 680.954 Q131.084 688.061 132.89 691.626 Q134.719 695.167 138.33 695.167 Q141.964 695.167 143.769 691.626 Q145.598 688.061 145.598 680.954 Q145.598 673.825 143.769 670.283 Q141.964 666.718 138.33 666.718 M138.33 663.015 Q144.14 663.015 147.195 667.621 Q150.274 672.204 150.274 680.954 Q150.274 689.681 147.195 694.288 Q144.14 698.871 138.33 698.871 Q132.519 698.871 129.441 694.288 Q126.385 689.681 126.385 680.954 Q126.385 672.204 129.441 667.621 Q132.519 663.015 138.33 663.015 Z" fill="#000000" fill-rule="evenodd" fill-opacity="1"></path><path clip-path="url(#clip230)" d="M171.339 667.714 L159.533 686.163 L171.339 686.163 L171.339 667.714 M170.112 663.64 L175.991 663.64 L175.991 686.163 L180.922 686.163 L180.922 690.052 L175.991 690.052 L175.991 698.2 L171.339 698.2 L171.339 690.052 L155.737 690.052 L155.737 685.538 L170.112 663.64 Z" fill="#000000" fill-rule="evenodd" fill-opacity="1"></path><path clip-path="url(#clip230)" d="M63.2606 284.32 Q59.6495 284.32 57.8208 287.885 Q56.0152 291.427 56.0152 298.556 Q56.0152 305.663 57.8208 309.228 Q59.6495 312.769 63.2606 312.769 Q66.8948 312.769 68.7004 309.228 Q70.5291 305.663 70.5291 298.556 Q70.5291 291.427 68.7004 287.885 Q66.8948 284.32 63.2606 284.32 M63.2606 280.617 Q69.0707 280.617 72.1263 285.223 Q75.205 289.806 75.205 298.556 Q75.205 307.283 72.1263 311.89 Q69.0707 316.473 63.2606 316.473 Q57.4504 316.473 54.3717 311.89 Q51.3162 307.283 51.3162 298.556 Q51.3162 289.806 54.3717 285.223 Q57.4504 280.617 63.2606 280.617 Z" fill="#000000" fill-rule="evenodd" fill-opacity="1"></path><path clip-path="url(#clip230)" d="M83.4225 309.922 L88.3067 309.922 L88.3067 315.802 L83.4225 315.802 L83.4225 309.922 Z" fill="#000000" fill-rule="evenodd" fill-opacity="1"></path><path clip-path="url(#clip230)" d="M108.492 284.32 Q104.881 284.32 103.052 287.885 Q101.246 291.427 101.246 298.556 Q101.246 305.663 103.052 309.228 Q104.881 312.769 108.492 312.769 Q112.126 312.769 113.932 309.228 Q115.76 305.663 115.76 298.556 Q115.76 291.427 113.932 287.885 Q112.126 284.32 108.492 284.32 M108.492 280.617 Q114.302 280.617 117.358 285.223 Q120.436 289.806 120.436 298.556 Q120.436 307.283 117.358 311.89 Q114.302 316.473 108.492 316.473 Q102.682 316.473 99.603 311.89 Q96.5474 307.283 96.5474 298.556 Q96.5474 289.806 99.603 285.223 Q102.682 280.617 108.492 280.617 Z" fill="#000000" fill-rule="evenodd" fill-opacity="1"></path><path clip-path="url(#clip230)" d="M138.654 284.32 Q135.043 284.32 133.214 287.885 Q131.408 291.427 131.408 298.556 Q131.408 305.663 133.214 309.228 Q135.043 312.769 138.654 312.769 Q142.288 312.769 144.093 309.228 Q145.922 305.663 145.922 298.556 Q145.922 291.427 144.093 287.885 Q142.288 284.32 138.654 284.32 M138.654 280.617 Q144.464 280.617 147.519 285.223 Q150.598 289.806 150.598 298.556 Q150.598 307.283 147.519 311.89 Q144.464 316.473 138.654 316.473 Q132.844 316.473 129.765 311.89 Q126.709 307.283 126.709 298.556 Q126.709 289.806 129.765 285.223 Q132.844 280.617 138.654 280.617 Z" fill="#000000" fill-rule="evenodd" fill-opacity="1"></path><path clip-path="url(#clip230)" d="M169.394 296.658 Q166.246 296.658 164.394 298.811 Q162.566 300.964 162.566 304.714 Q162.566 308.441 164.394 310.616 Q166.246 312.769 169.394 312.769 Q172.542 312.769 174.371 310.616 Q176.223 308.441 176.223 304.714 Q176.223 300.964 174.371 298.811 Q172.542 296.658 169.394 296.658 M178.677 282.005 L178.677 286.265 Q176.917 285.431 175.112 284.992 Q173.329 284.552 171.57 284.552 Q166.941 284.552 164.487 287.677 Q162.056 290.802 161.709 297.121 Q163.075 295.107 165.135 294.042 Q167.195 292.955 169.672 292.955 Q174.88 292.955 177.89 296.126 Q180.922 299.274 180.922 304.714 Q180.922 310.038 177.774 313.255 Q174.626 316.473 169.394 316.473 Q163.399 316.473 160.228 311.89 Q157.056 307.283 157.056 298.556 Q157.056 290.362 160.945 285.501 Q164.834 280.617 171.385 280.617 Q173.144 280.617 174.927 280.964 Q176.732 281.311 178.677 282.005 Z" fill="#000000" fill-rule="evenodd" fill-opacity="1"></path><polyline clip-path="url(#clip232)" style="stroke:#009af9; stroke-linecap:butt; stroke-linejoin:round; stroke-width:4; stroke-opacity:1; fill:none" points="
  277.37,96.7557 680.358,947.542 1083.35,1421.09 1486.33,1445.35 1889.32,1445.31 2292.31,1444.96 
  "></polyline>
<polyline clip-path="url(#clip232)" style="stroke:#e26f46; stroke-linecap:butt; stroke-linejoin:round; stroke-width:4; stroke-opacity:1; fill:none" points="
  277.37,87.9763 680.358,946.231 1083.35,1420.85 1486.33,1445.55 1889.32,1445.72 2292.31,1445.72 
  "></polyline>
<path clip-path="url(#clip230)" d="
M1991.82 250.738 L2281.56 250.738 L2281.56 95.2176 L1991.82 95.2176  Z
  " fill="#ffffff" fill-rule="evenodd" fill-opacity="1"></path>
<polyline clip-path="url(#clip230)" style="stroke:#000000; stroke-linecap:butt; stroke-linejoin:round; stroke-width:4; stroke-opacity:1; fill:none" points="
  1991.82,250.738 2281.56,250.738 2281.56,95.2176 1991.82,95.2176 1991.82,250.738 
  "></polyline>
<polyline clip-path="url(#clip230)" style="stroke:#009af9; stroke-linecap:butt; stroke-linejoin:round; stroke-width:4; stroke-opacity:1; fill:none" points="
  2015.55,147.058 2157.94,147.058 
  "></polyline>
<path clip-path="url(#clip230)" d="M2195.51 166.745 Q2193.71 171.375 2191.99 172.787 Q2190.28 174.199 2187.41 174.199 L2184.01 174.199 L2184.01 170.634 L2186.51 170.634 Q2188.27 170.634 2189.24 169.8 Q2190.21 168.967 2191.39 165.865 L2192.15 163.921 L2181.67 138.412 L2186.18 138.412 L2194.28 158.689 L2202.39 138.412 L2206.9 138.412 L2195.51 166.745 Z" fill="#000000" fill-rule="evenodd" fill-opacity="1"></path><path clip-path="url(#clip230)" d="M2214.19 160.402 L2221.83 160.402 L2221.83 134.037 L2213.52 135.703 L2213.52 131.444 L2221.78 129.778 L2226.46 129.778 L2226.46 160.402 L2234.1 160.402 L2234.1 164.338 L2214.19 164.338 L2214.19 160.402 Z" fill="#000000" fill-rule="evenodd" fill-opacity="1"></path><polyline clip-path="url(#clip230)" style="stroke:#e26f46; stroke-linecap:butt; stroke-linejoin:round; stroke-width:4; stroke-opacity:1; fill:none" points="
  2015.55,198.898 2157.94,198.898 
  "></polyline>
<path clip-path="url(#clip230)" d="M2195.51 218.585 Q2193.71 223.215 2191.99 224.627 Q2190.28 226.039 2187.41 226.039 L2184.01 226.039 L2184.01 222.474 L2186.51 222.474 Q2188.27 222.474 2189.24 221.64 Q2190.21 220.807 2191.39 217.705 L2192.15 215.761 L2181.67 190.252 L2186.18 190.252 L2194.28 210.529 L2202.39 190.252 L2206.9 190.252 L2195.51 218.585 Z" fill="#000000" fill-rule="evenodd" fill-opacity="1"></path><path clip-path="url(#clip230)" d="M2217.41 212.242 L2233.73 212.242 L2233.73 216.178 L2211.78 216.178 L2211.78 212.242 Q2214.45 209.488 2219.03 204.858 Q2223.64 200.205 2224.82 198.863 Q2227.06 196.34 2227.94 194.604 Q2228.84 192.844 2228.84 191.155 Q2228.84 188.4 2226.9 186.664 Q2224.98 184.928 2221.88 184.928 Q2219.68 184.928 2217.22 185.692 Q2214.79 186.455 2212.02 188.006 L2212.02 183.284 Q2214.84 182.15 2217.29 181.571 Q2219.75 180.993 2221.78 180.993 Q2227.15 180.993 2230.35 183.678 Q2233.54 186.363 2233.54 190.854 Q2233.54 192.983 2232.73 194.905 Q2231.95 196.803 2229.84 199.395 Q2229.26 200.067 2226.16 203.284 Q2223.06 206.479 2217.41 212.242 Z" fill="#000000" fill-rule="evenodd" fill-opacity="1"></path></svg>